<svg width="183" height="108" viewBox="0 0 183 108" fill="none" xmlns="http://www.w3.org/2000/svg">
<path d="M73.6819 41.0264H80.7925V39.4447H75.7521C79.7381 36.658 80.8825 35.3625 80.8825 33.3139C80.8825 31.1599 79.4424 30 77.2565 30C75.2378 30 73.9134 31.1599 73.6177 33.1784L75.0063 33.4194C75.2249 32.2143 76.0607 31.5515 77.2565 31.5515C78.478 31.5515 79.3395 32.2294 79.3395 33.4646C79.3395 34.9558 78.7995 35.7994 73.6819 39.4899V41.0264Z" fill="#FFE592"/>
<path d="M86.366 41.1921C88.5005 41.1921 90.3906 39.5502 90.3906 35.5885C90.3906 31.7022 88.4876 30 86.3917 30C84.2701 30 82.3671 31.7022 82.3671 35.5885C82.3671 39.5502 84.2444 41.1921 86.366 41.1921ZM86.366 39.6104C84.7973 39.6104 83.833 38.1643 83.833 35.5885C83.833 33.0729 84.823 31.5817 86.3789 31.5817C87.9219 31.5817 88.9119 33.0729 88.9119 35.5885C88.9119 38.1643 87.9347 39.6104 86.366 39.6104Z" fill="#FFE592"/>
<path d="M91.9139 41.0264H99.0245V39.4447H93.9841C97.9701 36.658 99.1145 35.3625 99.1145 33.3139C99.1145 31.1599 97.6744 30 95.4885 30C93.4698 30 92.1454 31.1599 91.8496 33.1784L93.2383 33.4194C93.4569 32.2143 94.2927 31.5515 95.4885 31.5515C96.71 31.5515 97.5715 32.2294 97.5715 33.4646C97.5715 34.9558 97.0315 35.7994 91.9139 39.4899V41.0264Z" fill="#FFE592"/>
<path d="M104.598 41.1921C106.732 41.1921 108.623 39.5502 108.623 35.5885C108.623 31.7022 106.72 30 104.624 30C102.502 30 100.599 31.7022 100.599 35.5885C100.599 39.5502 102.476 41.1921 104.598 41.1921ZM104.598 39.6104C103.029 39.6104 102.065 38.1643 102.065 35.5885C102.065 33.0729 103.055 31.5817 104.611 31.5817C106.154 31.5817 107.144 33.0729 107.144 35.5885C107.144 38.1643 106.167 39.6104 104.598 39.6104Z" fill="#FFE592"/>
<path d="M45 59.5132H48.0988C51.2234 59.5132 52.252 58.3533 52.252 56.5156C52.252 54.9189 51.5834 54.1506 50.2204 53.9397C51.3905 53.6837 51.9434 52.8702 51.9434 51.4242C51.9434 49.6316 51.0433 48.6073 47.9574 48.6073H45V59.5132ZM46.4787 53.277V50.1287H47.9317C49.809 50.1287 50.3747 50.4752 50.3747 51.62C50.3747 52.8251 49.6547 53.277 47.9702 53.277H46.4787ZM46.4787 58.0068V54.6628H48.1117C50.0533 54.6628 50.6833 55.0695 50.6833 56.3499C50.6833 57.5098 49.9504 58.0068 48.086 58.0068H46.4787Z" fill="#FFE592"/>
<path d="M54.0344 59.5132H60.1034V57.9315H55.5259V54.7381H59.872V53.2318H55.5259V50.189H60.1034V48.6073H54.0344V59.5132Z" fill="#FFE592"/>
<path d="M65.0147 59.6638C67.1235 59.6638 68.4864 58.4136 68.4864 56.5005C68.4864 52.2376 62.9832 54.2259 62.9832 51.5145C62.9832 50.5656 63.6518 49.9932 64.809 49.9932C65.9277 49.9932 66.6477 50.5204 67.0463 51.5597L68.4093 51.2434C67.9335 49.4207 66.6606 48.4416 64.7704 48.4416C62.8546 48.4416 61.543 49.6919 61.543 51.5145C61.543 55.7172 67.0206 53.9247 67.0206 56.5005C67.0206 57.5399 66.2877 58.1424 65.0019 58.1424C63.8189 58.1424 62.9317 57.5098 62.546 56.38L61.1444 56.7114C61.6202 58.5793 63.0732 59.6638 65.0147 59.6638Z" fill="#FFE592"/>
<path d="M71.8846 59.5132H73.3762V50.189H75.8835V48.6073H69.3644V50.189H71.8846V59.5132Z" fill="#FFE592"/>
<path d="M81.357 59.5132H83.8129C87.5932 59.5132 89.1104 57.7056 89.1104 54.0603C89.1104 50.3848 87.5932 48.6073 83.8129 48.6073H81.357V59.5132ZM82.8485 57.9315V50.1739H83.8515C86.5774 50.1739 87.606 51.3639 87.606 54.0452C87.606 56.7415 86.5774 57.9315 83.8643 57.9315H82.8485Z" fill="#FFE592"/>
<path d="M91.0317 59.5132H97.1008V57.9315H92.5233V54.7381H96.8693V53.2318H92.5233V50.189H97.1008V48.6073H91.0317V59.5132Z" fill="#FFE592"/>
<path d="M102.012 59.6638C104.121 59.6638 105.484 58.4136 105.484 56.5005C105.484 52.2376 99.9805 54.2259 99.9805 51.5145C99.9805 50.5656 100.649 49.9932 101.806 49.9932C102.925 49.9932 103.645 50.5204 104.044 51.5597L105.407 51.2434C104.931 49.4207 103.658 48.4416 101.768 48.4416C99.8519 48.4416 98.5404 49.6919 98.5404 51.5145C98.5404 55.7172 104.018 53.9247 104.018 56.5005C104.018 57.5399 103.285 58.1424 101.999 58.1424C100.816 58.1424 99.9291 57.5098 99.5433 56.38L98.1418 56.7114C98.6176 58.5793 100.071 59.6638 102.012 59.6638Z" fill="#FFE592"/>
<path d="M110.318 59.6638C112.427 59.6638 113.79 58.4136 113.79 56.5005C113.79 52.2376 108.287 54.2259 108.287 51.5145C108.287 50.5656 108.955 49.9932 110.112 49.9932C111.231 49.9932 111.951 50.5204 112.35 51.5597L113.713 51.2434C113.237 49.4207 111.964 48.4416 110.074 48.4416C108.158 48.4416 106.846 49.6919 106.846 51.5145C106.846 55.7172 112.324 53.9247 112.324 56.5005C112.324 57.5399 111.591 58.1424 110.305 58.1424C109.122 58.1424 108.235 57.5098 107.849 56.38L106.448 56.7114C106.924 58.5793 108.377 59.6638 110.318 59.6638Z" fill="#FFE592"/>
<path d="M115.423 59.5132H121.492V57.9315H116.914V54.7381H121.26V53.2318H116.914V50.189H121.492V48.6073H115.423V59.5132Z" fill="#FFE592"/>
<path d="M130.514 59.5132L128.225 55.5515C129.626 55.0695 130.359 53.9849 130.359 52.2075C130.359 49.5864 128.984 48.6073 126.09 48.6073H123.364V59.5132H124.869V55.8679H126.065C126.296 55.8679 126.528 55.8528 126.746 55.8377L128.791 59.5132H130.514ZM124.856 54.4067V50.1137H126.206C127.968 50.1137 128.855 50.5354 128.855 52.2828C128.855 54.0301 127.968 54.4067 126.206 54.4067H124.856Z" fill="#FFE592"/>
<path d="M134.001 59.5132H135.493V50.189H138V48.6073H131.481V50.189H134.001V59.5132Z" fill="#FFE592"/>
<path d="M67.3854 78H68.7998L70.9086 69.6097L73.0301 78H74.4445L77.5948 67.1092H75.9875L73.6731 75.5296L71.5386 67.1092H70.2785L68.1569 75.5296L65.8553 67.1092H64.248L67.3854 78Z" fill="#FFE592"/>
<path d="M78.6952 78H80.1867V67.0941H78.6952V78Z" fill="#FFE592"/>
<path d="M82.4055 78H83.897V69.7302L88.7188 78H90.1975V67.0941H88.706V75.3187L83.9099 67.0941H82.4055V78Z" fill="#FFE592"/>
<path d="M92.4193 78H93.9108V69.7302L98.7326 78H100.211V67.0941H98.7198V75.3187L93.9237 67.0941H92.4193V78Z" fill="#FFE592"/>
<path d="M102.433 78H108.502V76.4183H103.925V73.2249H108.271V71.7186H103.925V68.6758H108.502V67.0941H102.433V78Z" fill="#FFE592"/>
<path d="M117.524 78L115.235 74.0383C116.637 73.5563 117.37 72.4718 117.37 70.6943C117.37 68.0733 115.994 67.0941 113.101 67.0941H110.375V78H111.879V74.3547H113.075C113.307 74.3547 113.538 74.3396 113.757 74.3245L115.801 78H117.524ZM111.867 72.8935V68.6005H113.217C114.978 68.6005 115.865 69.0223 115.865 70.7696C115.865 72.5169 114.978 72.8935 113.217 72.8935H111.867Z" fill="#FFE592"/>
<path d="M166.816 78.1323C163.164 86.3592 157.157 93.0975 149.683 97.3496C144.65 100.326 133.705 105.397 128.5 108L125.5 106.38C127.5 106.38 134.636 103.409 136.5 102.6C141.981 100.222 147.64 97.7347 152.682 94.4121C158.116 90.5843 162.504 85.2576 165.392 78.9833C169.469 70.7204 171.82 61.5933 172.281 52.2438C172.407 43.7914 170.783 35.4155 167.528 27.7279C164.97 21.5173 161.635 15.716 157.614 10.4872C156.265 10.5937 154.927 10.1641 153.852 9.27925C153.547 9.04623 153.258 8.78931 152.987 8.51056L152.174 7.63205C151.663 6.98519 151.188 6.30685 150.75 5.60049C149.861 4.20037 149.124 2.77279 148.564 1.67466C148.285 1.12559 148.081 0.686347 147.929 0.356907L147.751 0H148.259C148.73 0.0736334 149.197 0.174442 149.657 0.301989C151.105 0.660519 152.499 1.23331 153.801 2.0041C155.243 2.87749 156.478 4.09892 157.41 5.57305C157.865 6.28241 158.176 7.08667 158.326 7.93404C158.463 8.65866 158.463 9.40568 158.326 10.1303C160.407 12.8922 162.318 15.7994 164.045 18.833C170.157 28.9535 173.319 40.8214 173.12 52.9026C172.599 61.6827 170.456 70.2613 166.816 78.1323Z" fill="#FFE592"/>
<path d="M148.804 107.66C150.501 107.332 152.157 106.788 153.735 106.04C154.431 105.724 155.11 105.366 155.769 104.97C155.769 104.97 154.981 104.613 153.735 104.173C152.49 103.734 150.838 103.158 149.109 102.691C147.401 102.202 145.64 101.962 143.873 101.977C143.05 102.017 142.237 102.183 141.458 102.471C140.645 102.817 139.883 103.289 139.195 103.871C139.481 104.784 139.984 105.598 140.653 106.235C141.322 106.871 142.134 107.305 143.008 107.495C144.906 108.004 146.884 108.06 148.804 107.66V107.66Z" fill="#FFE592"/>
<path d="M139.422 100.88C140.196 100.706 140.925 100.35 141.557 99.8369C142.85 98.6806 143.862 97.2011 144.506 95.5268C145.096 94.0604 145.514 92.5203 145.751 90.942C145.751 90.3106 145.904 89.7615 145.955 89.4046C146.006 89.0477 145.955 88.8281 145.955 88.8281L144.48 89.7615C143.362 90.5182 142.284 91.3431 141.252 92.2324C140.073 93.2279 139.051 94.424 138.227 95.7738C137.365 97.2285 136.939 98.9349 137.007 100.661C137.77 101.01 138.616 101.087 139.422 100.88V100.88Z" fill="#FFE592"/>
<path d="M161.641 93.7174C159.883 93.7092 158.131 93.9491 156.43 94.4312C155.643 94.6501 154.904 95.0375 154.258 95.5704C153.612 96.1032 153.071 96.7708 152.668 97.5334C153.18 98.2654 153.84 98.8611 154.598 99.2751C155.355 99.6891 156.191 99.9103 157.04 99.9219C158.922 99.9331 160.782 99.4826 162.48 98.6041C164.102 97.788 165.622 96.7549 167.005 95.5294C167.564 95.0352 168.022 94.5959 168.327 94.2665L168.81 93.7449H166.573C165.225 93.69 163.446 93.6625 161.641 93.7174Z" fill="#FFE592"/>
<path d="M149.638 94.6253C150.423 94.6521 151.201 94.4709 151.906 94.0976C152.61 93.7243 153.22 93.1703 153.68 92.484C154.656 91.0267 155.277 89.3271 155.485 87.5424C155.704 85.9864 155.704 84.4037 155.485 82.8478C155.427 82.3556 155.334 81.8691 155.205 81.3928C155.168 81.2057 155.117 81.0221 155.053 80.8438L154.773 81.1732L154.01 82.0791C153.375 82.8753 152.511 83.946 151.646 85.2088C150.729 86.5196 150 87.9727 149.486 89.519C148.952 91.1831 149.006 93.0018 149.638 94.6253V94.6253Z" fill="#FFE592"/>
<path d="M173.279 84.9837L173.813 84.2699L174.067 83.8855L174.27 83.611L174.982 82.458C175.44 81.7167 175.821 81.0029 176.151 80.399C176.482 79.795 176.711 79.2734 176.889 78.889L177.117 78.3125L175.084 78.9714C173.574 79.4804 172.097 80.0948 170.661 80.8108L169.491 81.4422L168.297 82.2109L167.153 83.007C166.791 83.2501 166.443 83.5159 166.111 83.8032C164.757 84.8316 163.792 86.3518 163.391 88.0859C164.08 88.6556 164.892 89.0253 165.751 89.1598C166.61 89.2944 167.486 89.1893 168.297 88.8546C170.254 88.081 171.977 86.7421 173.279 84.9837V84.9837Z" fill="#FFE592"/>
<path d="M162.784 77.1071C162.357 75.5616 161.795 74.0633 161.107 72.6322C160.891 72.1796 160.654 71.7398 160.395 71.3145L160.09 70.8203C160.023 70.9725 159.964 71.1282 159.912 71.287C159.785 71.6165 159.607 72.0557 159.429 72.6048C159.251 73.1539 159.048 73.7853 158.87 74.4991C158.661 75.1976 158.508 75.914 158.412 76.6404C158.203 78.0563 158.118 79.4901 158.158 80.9231C158.212 82.6579 158.773 84.3298 159.759 85.7C160.526 85.4934 161.228 85.0686 161.791 84.47C162.354 83.8713 162.759 83.1205 162.962 82.2958C163.086 81.8944 163.171 81.4805 163.216 81.0604C163.242 80.6216 163.242 80.1815 163.216 79.7427C163.184 79.3087 163.124 78.8777 163.038 78.4523C162.988 77.9856 162.886 77.5464 162.784 77.1071Z" fill="#FFE592"/>
<path d="M181.079 63.4323C181.135 63.216 181.178 62.9959 181.206 62.7734L179.325 63.8716C177.932 64.7047 176.582 65.6213 175.283 66.6169C173.824 67.6159 172.527 68.8681 171.445 70.3231C171.21 70.6631 170.997 71.0209 170.81 71.3938C170.608 71.7567 170.446 72.1437 170.327 72.5468C170.095 73.3839 170.051 74.2686 170.2 75.1274C171.006 75.3776 171.854 75.4286 172.682 75.2765C173.509 75.1244 174.294 74.7732 174.978 74.2489C175.342 73.9991 175.69 73.724 176.021 73.4253C176.361 73.0985 176.684 72.7501 176.987 72.3821C177.571 71.6272 178.106 70.8291 178.588 69.9937C179.445 68.4586 180.127 66.818 180.622 65.107C180.825 64.3932 180.977 63.8167 181.079 63.4323Z" fill="#FFE592"/>
<path d="M166.036 73.5639C166.676 73.0603 167.198 72.4023 167.561 71.6421C167.734 71.2648 167.87 70.8692 167.968 70.4616C168.059 70.0569 168.11 69.6427 168.12 69.2262C168.082 67.4465 167.692 65.6961 166.976 64.0925C166.259 62.6656 165.407 61.3224 164.434 60.0843C164.143 59.6877 163.829 59.3118 163.494 58.9587L163.112 58.5469C163.096 58.7111 163.096 58.8768 163.112 59.041C163.002 59.474 162.917 59.9142 162.858 60.3588C162.658 61.7501 162.531 63.1524 162.477 64.5592C162.414 65.3905 162.414 66.226 162.477 67.0574V67.6888C162.477 67.881 162.477 68.1007 162.477 68.2928C162.546 68.7105 162.639 69.1231 162.756 69.5282C163.317 71.2861 164.495 72.7356 166.036 73.5639V73.5639Z" fill="#FFE592"/>
<path d="M177.215 51.5753C176.91 51.9322 176.631 52.2891 176.351 52.6734L175.538 53.7716C175.014 54.4808 174.57 55.255 174.216 56.0776C174.047 56.4568 173.911 56.852 173.809 57.2581C173.676 57.6566 173.591 58.0718 173.555 58.4935C173.457 59.3588 173.562 60.2365 173.86 61.0467C174.7 61.1321 175.547 61.0083 176.336 60.6846C177.125 60.361 177.834 59.8462 178.41 59.1799C178.724 58.8578 179.013 58.509 179.274 58.1366C179.544 57.7418 179.79 57.3292 180.011 56.9012C180.45 56.019 180.824 55.1011 181.13 54.1559C181.289 53.6881 181.424 53.2116 181.537 52.7283C181.537 52.2616 181.715 51.7675 181.791 51.3282C181.96 50.5048 182.079 49.6702 182.147 48.83C182.147 47.3749 182.147 46.4141 182.147 46.4141C182.147 46.4141 181.486 46.9906 180.545 47.9514C179.605 48.9123 178.385 50.1752 177.215 51.5753Z" fill="#FFE592"/>
<path d="M170.707 57.8311C170.818 57.4392 170.877 57.0327 170.885 56.6231C170.935 56.2131 170.935 55.7977 170.885 55.3877C170.722 54.5308 170.457 53.7003 170.097 52.9169C170.014 52.7193 169.92 52.5268 169.817 52.3404L169.487 51.7639C169.233 51.3795 168.978 51.0226 168.724 50.6932C168.236 50.0273 167.7 49.4031 167.123 48.8264C166.873 48.5639 166.61 48.3164 166.335 48.0851L165.572 47.4537C165.05 47.046 164.507 46.6703 163.945 46.3281C163.945 46.3281 163.945 47.0145 163.945 48.0851C163.945 48.3597 163.945 48.6617 163.945 48.9636C163.945 49.2656 163.945 49.5951 163.945 49.952C163.945 50.3089 164.149 51.3795 164.301 52.1482C164.41 52.9427 164.588 53.7241 164.835 54.4818C164.961 54.8688 165.114 55.245 165.293 55.6074C165.423 55.9883 165.584 56.3559 165.776 56.7055C166.562 58.2569 167.859 59.4326 169.411 59.9999C170.018 59.4182 170.466 58.6682 170.707 57.8311V57.8311Z" fill="#FFE592"/>
<path d="M174.019 41.6362C173.869 42.461 173.869 43.3097 174.019 44.1345C174.163 44.9875 174.447 45.8057 174.858 46.5503C175.697 46.4237 176.497 46.0873 177.194 45.5678C177.892 45.0482 178.467 44.36 178.874 43.5579C179.331 42.6925 179.69 41.7708 179.942 40.8126C180.164 39.8301 180.309 38.829 180.374 37.8202V36.3377C180.374 35.8436 180.374 35.3494 180.374 34.9101C180.374 33.9767 180.222 33.1257 180.12 32.3844C179.84 30.9569 179.586 30.0234 179.586 30.0234C179.586 30.0234 179.103 30.7921 178.417 31.9726L177.248 34.0042C176.841 34.7729 176.409 35.5965 176.002 36.4201C175.595 37.2437 175.189 38.1222 174.858 39.0007C174.492 39.8442 174.211 40.7278 174.019 41.6362V41.6362Z" fill="#FFE592"/>
<path d="M170.508 41.3937C170.158 40.6132 169.704 39.8918 169.161 39.2523C168.907 38.9229 168.602 38.6209 168.322 38.3189C168.042 38.0169 167.661 37.7424 167.356 37.4953C165.637 36.2153 163.716 35.285 161.688 34.75C161.825 35.3189 161.995 35.8782 162.196 36.4247C162.374 36.9188 162.526 37.4953 162.781 38.1268C162.901 38.4544 163.036 38.7751 163.187 39.0876C163.31 39.4452 163.454 39.7937 163.619 40.1309C163.92 40.8456 164.286 41.5262 164.712 42.1624C165.103 42.8475 165.563 43.4829 166.085 44.0567C167.213 45.2993 168.704 46.0846 170.305 46.2804C170.523 45.9098 170.702 45.5138 170.839 45.0999C170.925 44.7034 170.976 44.299 170.991 43.892C170.997 43.0316 170.832 42.1798 170.508 41.3937V41.3937Z" fill="#FFE592"/>
<path d="M172.975 15.3359L172.263 17.5048C171.831 18.85 171.374 20.5795 170.916 22.4189C170.713 23.3523 170.56 24.2583 170.433 25.1642C170.33 26.0759 170.33 26.9979 170.433 27.9096C170.459 28.3245 170.51 28.7372 170.586 29.145C170.657 29.5499 170.768 29.9456 170.916 30.3255C171.061 30.7115 171.258 31.0723 171.501 31.3961C171.72 31.7629 171.985 32.0955 172.289 32.3845C173.078 32.0299 173.783 31.4853 174.348 30.7922C174.873 30.101 175.255 29.2957 175.466 28.4312C175.598 27.9726 175.699 27.5048 175.771 27.0311C175.797 26.5465 175.797 26.0606 175.771 25.576C175.75 24.5735 175.665 23.5737 175.517 22.5836C175.201 20.8215 174.688 19.107 173.992 17.4773C173.738 16.8459 173.483 16.2968 173.306 15.9125C173.206 15.7133 173.096 15.5208 172.975 15.3359Z" fill="#FFE592"/>
<path d="M167.614 29.0884C167.435 28.7273 167.222 28.387 166.978 28.0726C166.453 27.4281 165.855 26.8564 165.199 26.3705C164.516 25.8851 163.782 25.4889 163.013 25.19C162.632 25.0253 162.25 24.8606 161.894 24.7508L160.776 24.4213C160.039 24.2566 159.378 24.1468 158.793 24.0644H157.421C157.243 24.0462 157.064 24.0462 156.887 24.0644L157.115 24.4763C157.268 24.7233 157.471 25.1077 157.751 25.5469C157.892 25.7931 158.045 26.0313 158.209 26.2607C158.279 26.3995 158.364 26.5285 158.463 26.645L158.717 27.0569C159.109 27.6506 159.534 28.2189 159.988 28.759C160.457 29.3663 160.966 29.9352 161.513 30.4611L161.945 30.8454L162.377 31.2023C162.671 31.4533 162.986 31.6739 163.318 31.8612C163.982 32.2801 164.702 32.5857 165.453 32.7672C166.291 32.9591 167.157 32.9591 167.995 32.7672C168.124 32.3605 168.193 31.9342 168.198 31.5043C168.208 31.0973 168.165 30.6908 168.071 30.2963C167.959 29.8774 167.805 29.4726 167.614 29.0884V29.0884Z" fill="#FFE592"/>
<path d="M166.393 19.429C167.063 18.8806 167.609 18.1762 167.992 17.3682C168.375 16.5602 168.584 15.6694 168.605 14.762C168.634 13.8402 168.557 12.9181 168.376 12.0166C168.165 11.0751 167.876 10.1562 167.512 9.27131C167.17 8.40842 166.771 7.57346 166.317 6.77305C165.94 6.06924 165.524 5.39082 165.071 4.7415C164.765 4.28128 164.434 3.84123 164.08 3.42373L163.673 2.95703C163.673 2.95703 163.673 3.86299 163.419 5.20821C163.419 5.89454 163.266 6.71814 163.19 7.5692C163.114 8.42025 163.19 8.44771 163.19 8.88697C163.19 9.32622 163.19 9.82037 163.19 10.2871C163.103 12.1345 163.274 13.9855 163.699 15.7777C163.897 16.5765 164.243 17.3236 164.715 17.974C165.172 18.5827 165.744 19.0789 166.393 19.429V19.429Z" fill="#FFE592"/>
<path d="M160.542 16.1644C159.2 15.1714 157.657 14.5406 156.042 14.325C155.269 14.1949 154.487 14.1307 153.704 14.1329C152.967 14.1329 152.28 14.1329 151.696 14.1329C150.526 14.2701 149.789 14.4349 149.789 14.4349L150.094 14.7917L150.933 15.7252L152.229 16.988C152.712 17.4273 153.246 17.894 153.831 18.3607C154.423 18.8389 155.053 19.2614 155.712 19.6235C156.355 20.0434 157.047 20.3667 157.771 20.5844C159.318 21.1069 160.988 21.0095 162.474 20.3099C162.513 19.4727 162.346 18.6391 161.991 17.894C161.608 17.2283 161.117 16.6424 160.542 16.1644V16.1644Z" fill="#FFE592"/>
<path d="M15.3327 78.1323C18.9842 86.3592 24.9916 93.0975 32.4656 97.3496C37.4981 100.326 48.4436 105.397 53.6484 108L56.6484 106.38C54.6484 106.38 47.5121 103.409 45.6484 102.6C40.1678 100.222 34.508 97.7347 29.4661 94.4121C24.0321 90.5843 19.644 85.2576 16.7562 78.9833C12.6794 70.7204 10.328 61.5933 9.86744 52.2438C9.74137 43.7914 11.3654 35.4155 14.6209 27.7279C17.178 21.5173 20.5138 15.716 24.5346 10.4872C25.8831 10.5937 27.2212 10.1641 28.2968 9.27925C28.6019 9.04623 28.8908 8.78931 29.161 8.51056L29.9745 7.63205C30.485 6.98519 30.9603 6.30685 31.398 5.60049C32.2877 4.20037 33.0248 2.77279 33.5841 1.67466C33.8637 1.12559 34.067 0.686347 34.2196 0.356907L34.3975 0H33.8891C33.4184 0.0736334 32.9517 0.174442 32.491 0.301989C31.0439 0.660519 29.6495 1.23331 28.3476 2.0041C26.9058 2.87749 25.6705 4.09892 24.738 5.57305C24.2837 6.28241 23.972 7.08667 23.8229 7.93404C23.6859 8.65866 23.6859 9.40568 23.8229 10.1303C21.7413 12.8922 19.8306 15.7994 18.1034 18.833C11.991 28.9535 8.82984 40.8214 9.02855 52.9026C9.54915 61.6827 11.6927 70.2613 15.3327 78.1323Z" fill="#FFE592"/>
<path d="M33.3445 107.66C31.6473 107.332 29.9919 106.788 28.413 106.04C27.7176 105.724 27.0386 105.366 26.3794 104.97C26.3794 104.97 27.1674 104.613 28.413 104.173C29.6586 103.734 31.3108 103.158 33.0394 102.691C34.7476 102.202 36.5087 101.962 38.2758 101.977C39.0985 102.017 39.9117 102.183 40.6907 102.471C41.5036 102.817 42.2657 103.289 42.9531 103.871C42.6675 104.784 42.1649 105.598 41.4956 106.235C40.8264 106.871 40.0141 107.305 39.1402 107.495C37.2422 108.004 35.2645 108.06 33.3445 107.66V107.66Z" fill="#FFE592"/>
<path d="M42.7265 100.88C41.9525 100.706 41.2235 100.35 40.5912 99.8369C39.2984 98.6806 38.2862 97.2011 37.6425 95.5268C37.0523 94.0604 36.634 92.5203 36.397 90.942C36.397 90.3106 36.2445 89.7615 36.1936 89.4046C36.1428 89.0477 36.1936 88.8281 36.1936 88.8281L37.668 89.7615C38.7867 90.5182 39.8646 91.3431 40.8963 92.2324C42.0758 93.2279 43.0974 94.424 43.9212 95.7738C44.7834 97.2285 45.2095 98.9349 45.1414 100.661C44.3786 101.01 43.5325 101.087 42.7265 100.88V100.88Z" fill="#FFE592"/>
<path d="M20.5073 93.7174C22.2657 93.7092 24.0176 93.9491 25.7184 94.4312C26.5058 94.6501 27.2444 95.0375 27.8906 95.5704C28.5369 96.1032 29.0775 96.7708 29.4805 97.5334C28.9687 98.2654 28.3086 98.8611 27.5508 99.2751C26.793 99.6891 25.9574 99.9103 25.1083 99.9219C23.226 99.9331 21.366 99.4826 19.6685 98.6041C18.0469 97.788 16.5268 96.7549 15.1438 95.5294C14.5845 95.0352 14.1269 94.5959 13.8219 94.2665L13.3389 93.7449H15.5759C16.9231 93.69 18.7025 93.6625 20.5073 93.7174Z" fill="#FFE592"/>
<path d="M32.5101 94.6253C31.7257 94.6521 30.9473 94.4709 30.2427 94.0976C29.5381 93.7243 28.9289 93.1703 28.4684 92.484C27.492 91.0267 26.8713 89.3271 26.6636 87.5424C26.4447 85.9864 26.4447 84.4037 26.6636 82.8478C26.7212 82.3556 26.8147 81.8691 26.9432 81.3928C26.9803 81.2057 27.0313 81.0221 27.0957 80.8438L27.3754 81.1732L28.1379 82.0791C28.7734 82.8753 29.6377 83.946 30.502 85.2088C31.4195 86.5196 32.148 87.9727 32.6627 89.519C33.1969 91.1831 33.1426 93.0018 32.5101 94.6253V94.6253Z" fill="#FFE592"/>
<path d="M8.86956 84.9837L8.33569 84.2699L8.08155 83.8855L7.87815 83.611L7.1664 82.458C6.70885 81.7167 6.32757 81.0029 5.99712 80.399C5.66666 79.795 5.43786 79.2734 5.25992 78.889L5.03115 78.3125L7.0647 78.9714C8.57439 79.4804 10.0519 80.0948 11.4878 80.8108L12.6571 81.4422L13.8518 82.2109L14.9957 83.007C15.3573 83.2501 15.7052 83.5159 16.0379 83.8032C17.3914 84.8316 18.3569 86.3518 18.7578 88.0859C18.0688 88.6556 17.2562 89.0253 16.3974 89.1598C15.5387 89.2944 14.6623 89.1893 13.8518 88.8546C11.8943 88.081 10.171 86.7421 8.86956 84.9837V84.9837Z" fill="#FFE592"/>
<path d="M19.3643 77.1071C19.7914 75.5616 20.3531 74.0633 21.0419 72.6322C21.2573 72.1796 21.4949 71.7398 21.7537 71.3145L22.0588 70.8203C22.1255 70.9725 22.1848 71.1282 22.2366 71.287C22.3637 71.6165 22.5417 72.0557 22.7196 72.6048C22.8976 73.1539 23.1009 73.7853 23.2789 74.4991C23.487 75.1976 23.6401 75.914 23.7365 76.6404C23.945 78.0563 24.0301 79.4901 23.9906 80.9231C23.9362 82.6579 23.3757 84.3298 22.3892 85.7C21.6224 85.4934 20.9209 85.0686 20.3576 84.47C19.7944 83.8713 19.3899 83.1205 19.1863 82.2958C19.0628 81.8944 18.9776 81.4805 18.9321 81.0604C18.9067 80.6216 18.9067 80.1815 18.9321 79.7427C18.9646 79.3087 19.0241 78.8777 19.1101 78.4523C19.1609 77.9856 19.2626 77.5464 19.3643 77.1071Z" fill="#FFE592"/>
<path d="M1.06928 63.4323C1.01325 63.216 0.970816 62.9959 0.942209 62.7734L2.82325 63.8716C4.21677 64.7047 5.5661 65.6213 6.86498 66.6169C8.32447 67.6159 9.62137 68.8681 10.7034 70.3231C10.9388 70.6631 11.1511 71.0209 11.3389 71.3938C11.5405 71.7567 11.7026 72.1437 11.8219 72.5468C12.0537 73.3839 12.0973 74.2686 11.9489 75.1274C11.1424 75.3776 10.294 75.4286 9.46677 75.2765C8.6395 75.1244 7.85451 74.7732 7.17001 74.2489C6.80644 73.9991 6.45829 73.724 6.12779 73.4253C5.78701 73.0985 5.46445 72.7501 5.16182 72.3821C4.57718 71.6272 4.04213 70.8291 3.56044 69.9937C2.7038 68.4586 2.021 66.818 1.52681 65.107C1.32346 64.3932 1.17096 63.8167 1.06928 63.4323Z" fill="#FFE592"/>
<path d="M16.1128 73.5639C15.4728 73.0603 14.9505 72.4023 14.5876 71.6421C14.4149 71.2648 14.2786 70.8692 14.1809 70.4616C14.0895 70.0569 14.0384 69.6427 14.0284 69.2262C14.0666 67.4465 14.4566 65.6961 15.1723 64.0925C15.8897 62.6656 16.7415 61.3224 17.7142 60.0843C18.0051 59.6877 18.3194 59.3118 18.6548 58.9587L19.0361 58.5469C19.0523 58.7111 19.0523 58.8768 19.0361 59.041C19.1467 59.474 19.2317 59.9142 19.2903 60.3588C19.4904 61.7501 19.6177 63.1524 19.6716 64.5592C19.7345 65.3905 19.7345 66.226 19.6716 67.0574V67.6888C19.6716 67.881 19.6716 68.1007 19.6716 68.2928C19.6024 68.7105 19.509 69.1231 19.3919 69.5282C18.8316 71.2861 17.6539 72.7356 16.1128 73.5639V73.5639Z" fill="#FFE592"/>
<path d="M4.93313 51.5753C5.23816 51.9322 5.51777 52.2891 5.79739 52.6734L6.61084 53.7716C7.1347 54.4808 7.57849 55.255 7.93272 56.0776C8.10151 56.4568 8.23758 56.852 8.33937 57.2581C8.47224 57.6566 8.55767 58.0718 8.59358 58.4935C8.69101 59.3588 8.58615 60.2365 8.28855 61.0467C7.44843 61.1321 6.60135 61.0083 5.81252 60.6846C5.02368 60.361 4.31409 59.8462 3.73839 59.1799C3.42475 58.8578 3.13573 58.509 2.87413 58.1366C2.60489 57.7418 2.35874 57.3292 2.13701 56.9012C1.69853 56.019 1.32457 55.1011 1.01854 54.1559C0.859814 53.6881 0.724044 53.2116 0.611811 52.7283C0.611811 52.2616 0.433857 51.7675 0.357597 51.3282C0.188336 50.5048 0.0694164 49.6702 0.00168328 48.83C0.00168328 47.3749 0.00168328 46.4141 0.00168328 46.4141C0.00168328 46.4141 0.66261 46.9906 1.60314 47.9514C2.54367 48.9123 3.76382 50.1752 4.93313 51.5753Z" fill="#FFE592"/>
<path d="M11.4415 57.8311C11.3309 57.4392 11.2711 57.0327 11.2636 56.6231C11.2132 56.2131 11.2132 55.7977 11.2636 55.3877C11.4264 54.5308 11.6912 53.7003 12.0516 52.9169C12.1348 52.7193 12.2281 52.5268 12.3312 52.3404L12.6616 51.7639C12.9158 51.3795 13.17 51.0226 13.4242 50.6932C13.9126 50.0273 14.4481 49.4031 15.0257 48.8264C15.2755 48.5639 15.5386 48.3164 15.8137 48.0851L16.5763 47.4537C17.0987 47.046 17.6418 46.6703 18.2031 46.3281C18.2031 46.3281 18.2031 47.0145 18.2031 48.0851C18.2031 48.3597 18.2031 48.6617 18.2031 48.9636C18.2031 49.2656 18.2031 49.5951 18.2031 49.952C18.2031 50.3089 17.9998 51.3795 17.8473 52.1482C17.7388 52.9427 17.5599 53.7241 17.3134 54.4818C17.1871 54.8688 17.0341 55.245 16.8559 55.6074C16.7258 55.9883 16.5641 56.3559 16.3729 56.7055C15.5864 58.2569 14.2891 59.4326 12.7379 59.9999C12.1306 59.4182 11.6823 58.6682 11.4415 57.8311V57.8311Z" fill="#FFE592"/>
<path d="M8.12915 41.6362C8.27987 42.461 8.27987 43.3097 8.12915 44.1345C7.98558 44.9875 7.70149 45.8057 7.29033 46.5503C6.45137 46.4237 5.65137 46.0873 4.95408 45.5678C4.2568 45.0482 3.68145 44.36 3.27396 43.5579C2.81712 42.6925 2.4587 41.7708 2.20638 40.8126C1.98431 39.8301 1.83972 38.829 1.77421 37.8202V36.3377C1.77421 35.8436 1.77421 35.3494 1.77421 34.9101C1.77421 33.9767 1.92674 33.1257 2.02842 32.3844C2.30804 30.9569 2.56221 30.0234 2.56221 30.0234C2.56221 30.0234 3.04517 30.7921 3.7315 31.9726L4.90087 34.0042C5.30758 34.7729 5.73969 35.5965 6.14641 36.4201C6.55313 37.2437 6.95987 38.1222 7.29033 39.0007C7.6565 39.8442 7.93769 40.7278 8.12915 41.6362V41.6362Z" fill="#FFE592"/>
<path d="M11.6403 41.3937C11.9909 40.6132 12.4447 39.8918 12.9875 39.2523C13.2417 38.9229 13.5467 38.6209 13.8263 38.3189C14.106 38.0169 14.4873 37.7424 14.7923 37.4953C16.5114 36.2153 18.4325 35.285 20.4609 34.75C20.3233 35.3189 20.1534 35.8782 19.9525 36.4247C19.7746 36.9188 19.6221 37.4953 19.3679 38.1268C19.2477 38.4544 19.112 38.7751 18.9612 39.0876C18.8385 39.4452 18.6941 39.7937 18.529 40.1309C18.2281 40.8456 17.862 41.5262 17.436 42.1624C17.0458 42.8475 16.5853 43.4829 16.0633 44.0567C14.9349 45.2993 13.4449 46.0846 11.8436 46.2804C11.6252 45.9098 11.4461 45.5138 11.3098 45.0999C11.2233 44.7034 11.1723 44.299 11.1573 43.892C11.1517 43.0316 11.3164 42.1798 11.6403 41.3937V41.3937Z" fill="#FFE592"/>
<path d="M9.17339 15.3359L9.88514 17.5048C10.3173 18.85 10.7748 20.5795 11.2324 22.4189C11.4357 23.3523 11.5883 24.2583 11.7154 25.1642C11.8188 26.0759 11.8188 26.9979 11.7154 27.9096C11.6896 28.3245 11.6386 28.7372 11.5629 29.145C11.4915 29.5499 11.3808 29.9456 11.2324 30.3255C11.0874 30.7115 10.8904 31.0723 10.6477 31.3961C10.4281 31.7629 10.163 32.0955 9.8597 32.3845C9.0701 32.0299 8.36588 31.4853 7.8007 30.7922C7.27535 30.101 6.89388 29.2957 6.68223 28.4312C6.55092 27.9726 6.44901 27.5048 6.3772 27.0311C6.35102 26.5465 6.35102 26.0606 6.3772 25.576C6.39858 24.5735 6.48353 23.5737 6.63142 22.5836C6.94784 20.8215 7.45995 19.107 8.15662 17.4773C8.41082 16.8459 8.66498 16.2968 8.84292 15.9125C8.94225 15.7133 9.05261 15.5208 9.17339 15.3359Z" fill="#FFE592"/>
<path d="M14.5346 29.0884C14.7138 28.7273 14.9267 28.387 15.1701 28.0726C15.6959 27.4281 16.2936 26.8564 16.9495 26.3705C17.6324 25.8851 18.3662 25.4889 19.1355 25.19C19.5168 25.0253 19.8981 24.8606 20.254 24.7508L21.3725 24.4213C22.1097 24.2566 22.7706 24.1468 23.3552 24.0644H24.7279C24.9055 24.0462 25.0842 24.0462 25.2617 24.0644L25.033 24.4763C24.8804 24.7233 24.6771 25.1077 24.3975 25.5469C24.2563 25.7931 24.1036 26.0313 23.9399 26.2607C23.8699 26.3995 23.7846 26.5285 23.6857 26.645L23.4315 27.0569C23.039 27.6506 22.6146 28.2189 22.1605 28.759C21.6918 29.3663 21.1821 29.9352 20.6354 30.4611L20.2032 30.8454L19.771 31.2023C19.4773 31.4533 19.1625 31.6739 18.8305 31.8612C18.1662 32.2801 17.446 32.5857 16.6953 32.7672C15.8573 32.9591 14.9913 32.9591 14.1533 32.7672C14.0241 32.3605 13.9555 31.9342 13.95 31.5043C13.9406 31.0973 13.9834 30.6908 14.077 30.2963C14.1898 29.8774 14.3432 29.4726 14.5346 29.0884V29.0884Z" fill="#FFE592"/>
<path d="M15.7554 19.429C15.0857 18.8806 14.5391 18.1762 14.1562 17.3682C13.7734 16.5602 13.5641 15.6694 13.5439 14.762C13.5149 13.8402 13.5918 12.9181 13.7726 12.0166C13.983 11.0751 14.2722 10.1562 14.6369 9.27131C14.9786 8.40842 15.3779 7.57346 15.8316 6.77305C16.2083 6.06924 16.6243 5.39082 17.0772 4.7415C17.383 4.28128 17.7141 3.84123 18.0686 3.42373L18.4753 2.95703C18.4753 2.95703 18.4753 3.86299 18.7295 5.20821C18.7295 5.89454 18.882 6.71814 18.9583 7.5692C19.0346 8.42025 18.9583 8.44771 18.9583 8.88697C18.9583 9.32622 18.9583 9.82037 18.9583 10.2871C19.0454 12.1345 18.874 13.9855 18.4499 15.7777C18.2518 16.5765 17.9059 17.3236 17.4331 17.974C16.9764 18.5827 16.4043 19.0789 15.7554 19.429V19.429Z" fill="#FFE592"/>
<path d="M21.6068 16.1644C22.9487 15.1714 24.4917 14.5406 26.1061 14.325C26.8798 14.1949 27.6617 14.1307 28.4447 14.1329C29.1819 14.1329 29.8682 14.1329 30.4529 14.1329C31.6222 14.2701 32.3594 14.4349 32.3594 14.4349L32.0544 14.7917L31.2155 15.7252L29.9191 16.988C29.4361 17.4273 28.9023 17.894 28.3176 18.3607C27.7252 18.8389 27.0959 19.2614 26.4366 19.6235C25.7939 20.0434 25.1012 20.3667 24.3776 20.5844C22.8305 21.1069 21.1608 21.0095 19.6749 20.3099C19.6357 19.4727 19.8023 18.6391 20.1579 17.894C20.5409 17.2283 21.0317 16.6424 21.6068 16.1644V16.1644Z" fill="#FFE592"/>
</svg>
