<svg width="183" height="108" viewBox="0 0 183 108" fill="none" xmlns="http://www.w3.org/2000/svg">
<path d="M166.816 78.1323C163.164 86.3592 157.157 93.0975 149.683 97.3496C144.65 100.326 133.705 105.397 128.5 108L125.5 106.38C127.5 106.38 134.636 103.409 136.5 102.6C141.981 100.222 147.64 97.7347 152.682 94.4121C158.116 90.5843 162.504 85.2576 165.392 78.9833C169.469 70.7204 171.82 61.5933 172.281 52.2438C172.407 43.7914 170.783 35.4155 167.528 27.7279C164.97 21.5173 161.635 15.716 157.614 10.4872C156.265 10.5937 154.927 10.1641 153.852 9.27925C153.547 9.04623 153.258 8.78931 152.987 8.51056L152.174 7.63205C151.663 6.98519 151.188 6.30685 150.75 5.60049C149.861 4.20037 149.124 2.77279 148.564 1.67466C148.285 1.12559 148.081 0.686347 147.929 0.356907L147.751 0H148.259C148.73 0.0736334 149.197 0.174442 149.657 0.301989C151.105 0.660519 152.499 1.23331 153.801 2.0041C155.243 2.87749 156.478 4.09892 157.41 5.57305C157.865 6.28241 158.176 7.08667 158.326 7.93404C158.463 8.65866 158.463 9.40568 158.326 10.1303C160.407 12.8922 162.318 15.7994 164.045 18.833C170.157 28.9535 173.319 40.8214 173.12 52.9026C172.599 61.6827 170.456 70.2613 166.816 78.1323Z" fill="#FFE592"/>
<path d="M148.804 107.66C150.501 107.332 152.157 106.788 153.735 106.04C154.431 105.724 155.11 105.366 155.769 104.97C155.769 104.97 154.981 104.613 153.735 104.173C152.49 103.734 150.838 103.158 149.109 102.691C147.401 102.202 145.64 101.962 143.873 101.977C143.05 102.017 142.237 102.183 141.458 102.471C140.645 102.817 139.883 103.289 139.195 103.871C139.481 104.784 139.984 105.598 140.653 106.235C141.322 106.871 142.134 107.305 143.008 107.495C144.906 108.004 146.884 108.06 148.804 107.66V107.66Z" fill="#FFE592"/>
<path d="M139.422 100.88C140.196 100.706 140.925 100.35 141.557 99.8369C142.85 98.6806 143.862 97.2011 144.506 95.5268C145.096 94.0604 145.514 92.5203 145.751 90.942C145.751 90.3106 145.904 89.7615 145.955 89.4046C146.006 89.0477 145.955 88.8281 145.955 88.8281L144.48 89.7615C143.362 90.5182 142.284 91.3431 141.252 92.2324C140.073 93.2279 139.051 94.424 138.227 95.7738C137.365 97.2285 136.939 98.9349 137.007 100.661C137.77 101.01 138.616 101.087 139.422 100.88V100.88Z" fill="#FFE592"/>
<path d="M161.641 93.7174C159.883 93.7092 158.131 93.9491 156.43 94.4312C155.643 94.6501 154.904 95.0375 154.258 95.5704C153.612 96.1032 153.071 96.7708 152.668 97.5334C153.18 98.2654 153.84 98.8611 154.598 99.2751C155.355 99.6891 156.191 99.9103 157.04 99.9219C158.922 99.9331 160.782 99.4826 162.48 98.6041C164.102 97.788 165.622 96.7549 167.005 95.5294C167.564 95.0352 168.022 94.5959 168.327 94.2665L168.81 93.7449H166.573C165.225 93.69 163.446 93.6625 161.641 93.7174Z" fill="#FFE592"/>
<path d="M149.638 94.6253C150.423 94.6521 151.201 94.4709 151.906 94.0976C152.61 93.7243 153.22 93.1703 153.68 92.484C154.656 91.0267 155.277 89.3271 155.485 87.5424C155.704 85.9864 155.704 84.4037 155.485 82.8478C155.427 82.3556 155.334 81.8691 155.205 81.3928C155.168 81.2057 155.117 81.0221 155.053 80.8438L154.773 81.1732L154.01 82.0791C153.375 82.8753 152.511 83.946 151.646 85.2088C150.729 86.5196 150 87.9727 149.486 89.519C148.952 91.1831 149.006 93.0018 149.638 94.6253V94.6253Z" fill="#FFE592"/>
<path d="M173.279 84.9837L173.813 84.2699L174.067 83.8855L174.27 83.611L174.982 82.458C175.44 81.7167 175.821 81.0029 176.151 80.399C176.482 79.795 176.711 79.2734 176.889 78.889L177.117 78.3125L175.084 78.9714C173.574 79.4804 172.097 80.0948 170.661 80.8108L169.491 81.4422L168.297 82.2109L167.153 83.007C166.791 83.2501 166.443 83.5159 166.111 83.8032C164.757 84.8316 163.792 86.3518 163.391 88.0859C164.08 88.6556 164.892 89.0253 165.751 89.1598C166.61 89.2944 167.486 89.1893 168.297 88.8546C170.254 88.081 171.977 86.7421 173.279 84.9837V84.9837Z" fill="#FFE592"/>
<path d="M162.784 77.1071C162.357 75.5616 161.795 74.0633 161.107 72.6322C160.891 72.1796 160.654 71.7398 160.395 71.3145L160.09 70.8203C160.023 70.9725 159.964 71.1282 159.912 71.287C159.785 71.6165 159.607 72.0557 159.429 72.6048C159.251 73.1539 159.048 73.7853 158.87 74.4991C158.661 75.1976 158.508 75.914 158.412 76.6404C158.203 78.0563 158.118 79.4901 158.158 80.9231C158.212 82.6579 158.773 84.3298 159.759 85.7C160.526 85.4934 161.228 85.0686 161.791 84.47C162.354 83.8713 162.759 83.1205 162.962 82.2958C163.086 81.8944 163.171 81.4805 163.216 81.0604C163.242 80.6216 163.242 80.1815 163.216 79.7427C163.184 79.3087 163.124 78.8777 163.038 78.4523C162.988 77.9856 162.886 77.5464 162.784 77.1071Z" fill="#FFE592"/>
<path d="M181.079 63.4323C181.135 63.216 181.178 62.9959 181.206 62.7734L179.325 63.8716C177.932 64.7047 176.582 65.6213 175.283 66.6169C173.824 67.6159 172.527 68.8681 171.445 70.3231C171.21 70.6631 170.997 71.0209 170.81 71.3938C170.608 71.7567 170.446 72.1437 170.327 72.5468C170.095 73.3839 170.051 74.2686 170.2 75.1274C171.006 75.3776 171.854 75.4286 172.682 75.2765C173.509 75.1244 174.294 74.7732 174.978 74.2489C175.342 73.9991 175.69 73.724 176.021 73.4253C176.361 73.0985 176.684 72.7501 176.987 72.3821C177.571 71.6272 178.106 70.8291 178.588 69.9937C179.445 68.4586 180.127 66.818 180.622 65.107C180.825 64.3932 180.977 63.8167 181.079 63.4323Z" fill="#FFE592"/>
<path d="M166.036 73.5639C166.676 73.0603 167.198 72.4023 167.561 71.6421C167.734 71.2648 167.87 70.8692 167.968 70.4616C168.059 70.0569 168.11 69.6427 168.12 69.2262C168.082 67.4465 167.692 65.6961 166.976 64.0925C166.259 62.6656 165.407 61.3224 164.434 60.0843C164.143 59.6877 163.829 59.3118 163.494 58.9587L163.112 58.5469C163.096 58.7111 163.096 58.8768 163.112 59.041C163.002 59.474 162.917 59.9142 162.858 60.3588C162.658 61.7501 162.531 63.1524 162.477 64.5592C162.414 65.3905 162.414 66.226 162.477 67.0574V67.6888C162.477 67.881 162.477 68.1007 162.477 68.2928C162.546 68.7105 162.639 69.1231 162.756 69.5282C163.317 71.2861 164.495 72.7356 166.036 73.5639V73.5639Z" fill="#FFE592"/>
<path d="M177.215 51.5753C176.91 51.9322 176.631 52.2891 176.351 52.6734L175.538 53.7716C175.014 54.4808 174.57 55.255 174.216 56.0776C174.047 56.4568 173.911 56.852 173.809 57.2581C173.676 57.6566 173.591 58.0718 173.555 58.4935C173.457 59.3588 173.562 60.2365 173.86 61.0467C174.7 61.1321 175.547 61.0083 176.336 60.6846C177.125 60.361 177.834 59.8462 178.41 59.1799C178.724 58.8578 179.013 58.509 179.274 58.1366C179.544 57.7418 179.79 57.3292 180.011 56.9012C180.45 56.019 180.824 55.1011 181.13 54.1559C181.289 53.6881 181.424 53.2116 181.537 52.7283C181.537 52.2616 181.715 51.7675 181.791 51.3282C181.96 50.5048 182.079 49.6702 182.147 48.83C182.147 47.3749 182.147 46.4141 182.147 46.4141C182.147 46.4141 181.486 46.9906 180.545 47.9514C179.605 48.9123 178.385 50.1752 177.215 51.5753Z" fill="#FFE592"/>
<path d="M170.707 57.8311C170.818 57.4392 170.877 57.0327 170.885 56.6231C170.935 56.2131 170.935 55.7977 170.885 55.3877C170.722 54.5308 170.457 53.7003 170.097 52.9169C170.014 52.7193 169.92 52.5268 169.817 52.3404L169.487 51.7639C169.233 51.3795 168.978 51.0226 168.724 50.6932C168.236 50.0273 167.7 49.4031 167.123 48.8264C166.873 48.5639 166.61 48.3164 166.335 48.0851L165.572 47.4537C165.05 47.046 164.507 46.6703 163.945 46.3281C163.945 46.3281 163.945 47.0145 163.945 48.0851C163.945 48.3597 163.945 48.6617 163.945 48.9636C163.945 49.2656 163.945 49.5951 163.945 49.952C163.945 50.3089 164.149 51.3795 164.301 52.1482C164.41 52.9427 164.588 53.7241 164.835 54.4818C164.961 54.8688 165.114 55.245 165.293 55.6074C165.423 55.9883 165.584 56.3559 165.776 56.7055C166.562 58.2569 167.859 59.4326 169.411 59.9999C170.018 59.4182 170.466 58.6682 170.707 57.8311V57.8311Z" fill="#FFE592"/>
<path d="M174.019 41.6362C173.869 42.461 173.869 43.3097 174.019 44.1345C174.163 44.9875 174.447 45.8057 174.858 46.5503C175.697 46.4237 176.497 46.0873 177.194 45.5678C177.892 45.0482 178.467 44.36 178.874 43.5579C179.331 42.6925 179.69 41.7708 179.942 40.8126C180.164 39.8301 180.309 38.829 180.374 37.8202V36.3377C180.374 35.8436 180.374 35.3494 180.374 34.9101C180.374 33.9767 180.222 33.1257 180.12 32.3844C179.84 30.9569 179.586 30.0234 179.586 30.0234C179.586 30.0234 179.103 30.7921 178.417 31.9726L177.248 34.0042C176.841 34.7729 176.409 35.5965 176.002 36.4201C175.595 37.2437 175.189 38.1222 174.858 39.0007C174.492 39.8442 174.211 40.7278 174.019 41.6362V41.6362Z" fill="#FFE592"/>
<path d="M170.508 41.3937C170.158 40.6132 169.704 39.8918 169.161 39.2523C168.907 38.9229 168.602 38.6209 168.322 38.3189C168.042 38.0169 167.661 37.7424 167.356 37.4953C165.637 36.2153 163.716 35.285 161.688 34.75C161.825 35.3189 161.995 35.8782 162.196 36.4247C162.374 36.9188 162.526 37.4953 162.781 38.1268C162.901 38.4544 163.036 38.7751 163.187 39.0876C163.31 39.4452 163.454 39.7937 163.619 40.1309C163.92 40.8456 164.286 41.5262 164.712 42.1624C165.103 42.8475 165.563 43.4829 166.085 44.0567C167.213 45.2993 168.704 46.0846 170.305 46.2804C170.523 45.9098 170.702 45.5138 170.839 45.0999C170.925 44.7034 170.976 44.299 170.991 43.892C170.997 43.0316 170.832 42.1798 170.508 41.3937V41.3937Z" fill="#FFE592"/>
<path d="M172.975 15.3359L172.263 17.5048C171.831 18.85 171.374 20.5795 170.916 22.4189C170.713 23.3523 170.56 24.2583 170.433 25.1642C170.33 26.0759 170.33 26.9979 170.433 27.9096C170.459 28.3245 170.51 28.7372 170.586 29.145C170.657 29.5499 170.768 29.9456 170.916 30.3255C171.061 30.7115 171.258 31.0723 171.501 31.3961C171.72 31.7629 171.985 32.0955 172.289 32.3845C173.078 32.0299 173.783 31.4853 174.348 30.7922C174.873 30.101 175.255 29.2957 175.466 28.4312C175.598 27.9726 175.699 27.5048 175.771 27.0311C175.797 26.5465 175.797 26.0606 175.771 25.576C175.75 24.5735 175.665 23.5737 175.517 22.5836C175.201 20.8215 174.688 19.107 173.992 17.4773C173.738 16.8459 173.483 16.2968 173.306 15.9125C173.206 15.7133 173.096 15.5208 172.975 15.3359Z" fill="#FFE592"/>
<path d="M167.614 29.0884C167.435 28.7273 167.222 28.387 166.978 28.0726C166.453 27.4281 165.855 26.8564 165.199 26.3705C164.516 25.8851 163.782 25.4889 163.013 25.19C162.632 25.0253 162.25 24.8606 161.894 24.7508L160.776 24.4213C160.039 24.2566 159.378 24.1468 158.793 24.0644H157.421C157.243 24.0462 157.064 24.0462 156.887 24.0644L157.115 24.4763C157.268 24.7233 157.471 25.1077 157.751 25.5469C157.892 25.7931 158.045 26.0313 158.209 26.2607C158.279 26.3995 158.364 26.5285 158.463 26.645L158.717 27.0569C159.109 27.6506 159.534 28.2189 159.988 28.759C160.457 29.3663 160.966 29.9352 161.513 30.4611L161.945 30.8454L162.377 31.2023C162.671 31.4533 162.986 31.6739 163.318 31.8612C163.982 32.2801 164.702 32.5857 165.453 32.7672C166.291 32.9591 167.157 32.9591 167.995 32.7672C168.124 32.3605 168.193 31.9342 168.198 31.5043C168.208 31.0973 168.165 30.6908 168.071 30.2963C167.959 29.8774 167.805 29.4726 167.614 29.0884V29.0884Z" fill="#FFE592"/>
<path d="M166.393 19.429C167.063 18.8806 167.609 18.1762 167.992 17.3682C168.375 16.5602 168.584 15.6694 168.605 14.762C168.634 13.8402 168.557 12.9181 168.376 12.0166C168.165 11.0751 167.876 10.1562 167.512 9.27131C167.17 8.40842 166.771 7.57346 166.317 6.77305C165.94 6.06924 165.524 5.39082 165.071 4.7415C164.765 4.28128 164.434 3.84123 164.08 3.42373L163.673 2.95703C163.673 2.95703 163.673 3.86299 163.419 5.20821C163.419 5.89454 163.266 6.71814 163.19 7.5692C163.114 8.42025 163.19 8.44771 163.19 8.88697C163.19 9.32622 163.19 9.82037 163.19 10.2871C163.103 12.1345 163.274 13.9855 163.699 15.7777C163.897 16.5765 164.243 17.3236 164.715 17.974C165.172 18.5827 165.744 19.0789 166.393 19.429V19.429Z" fill="#FFE592"/>
<path d="M160.542 16.1644C159.2 15.1714 157.657 14.5406 156.042 14.325C155.269 14.1949 154.487 14.1307 153.704 14.1329C152.967 14.1329 152.28 14.1329 151.696 14.1329C150.526 14.2701 149.789 14.4349 149.789 14.4349L150.094 14.7917L150.933 15.7252L152.229 16.988C152.712 17.4273 153.246 17.894 153.831 18.3607C154.423 18.8389 155.053 19.2614 155.712 19.6235C156.355 20.0434 157.047 20.3667 157.771 20.5844C159.318 21.1069 160.988 21.0095 162.474 20.3099C162.513 19.4727 162.346 18.6391 161.991 17.894C161.608 17.2283 161.117 16.6424 160.542 16.1644V16.1644Z" fill="#FFE592"/>
<path d="M15.3327 78.1323C18.9842 86.3592 24.9916 93.0975 32.4656 97.3496C37.4981 100.326 48.4436 105.397 53.6484 108L56.6484 106.38C54.6484 106.38 47.5121 103.409 45.6484 102.6C40.1678 100.222 34.508 97.7347 29.4661 94.4121C24.0321 90.5843 19.644 85.2576 16.7562 78.9833C12.6794 70.7204 10.328 61.5933 9.86744 52.2438C9.74137 43.7914 11.3654 35.4155 14.6209 27.7279C17.178 21.5173 20.5138 15.716 24.5346 10.4872C25.8831 10.5937 27.2212 10.1641 28.2968 9.27925C28.6019 9.04623 28.8908 8.78931 29.161 8.51056L29.9745 7.63205C30.485 6.98519 30.9603 6.30685 31.398 5.60049C32.2877 4.20037 33.0248 2.77279 33.5841 1.67466C33.8637 1.12559 34.067 0.686347 34.2196 0.356907L34.3975 0H33.8891C33.4184 0.0736334 32.9517 0.174442 32.491 0.301989C31.0439 0.660519 29.6495 1.23331 28.3476 2.0041C26.9058 2.87749 25.6705 4.09892 24.738 5.57305C24.2837 6.28241 23.972 7.08667 23.8229 7.93404C23.6859 8.65866 23.6859 9.40568 23.8229 10.1303C21.7413 12.8922 19.8306 15.7994 18.1034 18.833C11.991 28.9535 8.82984 40.8214 9.02855 52.9026C9.54915 61.6827 11.6927 70.2613 15.3327 78.1323Z" fill="#FFE592"/>
<path d="M33.3445 107.66C31.6473 107.332 29.9919 106.788 28.413 106.04C27.7176 105.724 27.0386 105.366 26.3794 104.97C26.3794 104.97 27.1674 104.613 28.413 104.173C29.6586 103.734 31.3108 103.158 33.0394 102.691C34.7476 102.202 36.5087 101.962 38.2758 101.977C39.0985 102.017 39.9117 102.183 40.6907 102.471C41.5036 102.817 42.2657 103.289 42.9531 103.871C42.6675 104.784 42.1649 105.598 41.4956 106.235C40.8264 106.871 40.0141 107.305 39.1402 107.495C37.2422 108.004 35.2645 108.06 33.3445 107.66V107.66Z" fill="#FFE592"/>
<path d="M42.7265 100.88C41.9525 100.706 41.2235 100.35 40.5912 99.8369C39.2984 98.6806 38.2862 97.2011 37.6425 95.5268C37.0523 94.0604 36.634 92.5203 36.397 90.942C36.397 90.3106 36.2445 89.7615 36.1936 89.4046C36.1428 89.0477 36.1936 88.8281 36.1936 88.8281L37.668 89.7615C38.7867 90.5182 39.8646 91.3431 40.8963 92.2324C42.0758 93.2279 43.0974 94.424 43.9212 95.7738C44.7834 97.2285 45.2095 98.9349 45.1414 100.661C44.3786 101.01 43.5325 101.087 42.7265 100.88V100.88Z" fill="#FFE592"/>
<path d="M20.5073 93.7174C22.2657 93.7092 24.0176 93.9491 25.7184 94.4312C26.5058 94.6501 27.2444 95.0375 27.8906 95.5704C28.5369 96.1032 29.0775 96.7708 29.4805 97.5334C28.9687 98.2654 28.3086 98.8611 27.5508 99.2751C26.793 99.6891 25.9574 99.9103 25.1083 99.9219C23.226 99.9331 21.366 99.4826 19.6685 98.6041C18.0469 97.788 16.5268 96.7549 15.1438 95.5294C14.5845 95.0352 14.1269 94.5959 13.8219 94.2665L13.3389 93.7449H15.5759C16.9231 93.69 18.7025 93.6625 20.5073 93.7174Z" fill="#FFE592"/>
<path d="M32.5101 94.6253C31.7257 94.6521 30.9473 94.4709 30.2427 94.0976C29.5381 93.7243 28.9289 93.1703 28.4684 92.484C27.492 91.0267 26.8713 89.3271 26.6636 87.5424C26.4447 85.9864 26.4447 84.4037 26.6636 82.8478C26.7212 82.3556 26.8147 81.8691 26.9432 81.3928C26.9803 81.2057 27.0313 81.0221 27.0957 80.8438L27.3754 81.1732L28.1379 82.0791C28.7734 82.8753 29.6377 83.946 30.502 85.2088C31.4195 86.5196 32.148 87.9727 32.6627 89.519C33.1969 91.1831 33.1426 93.0018 32.5101 94.6253V94.6253Z" fill="#FFE592"/>
<path d="M8.86956 84.9837L8.33569 84.2699L8.08155 83.8855L7.87815 83.611L7.1664 82.458C6.70885 81.7167 6.32757 81.0029 5.99712 80.399C5.66666 79.795 5.43786 79.2734 5.25992 78.889L5.03115 78.3125L7.0647 78.9714C8.57439 79.4804 10.0519 80.0948 11.4878 80.8108L12.6571 81.4422L13.8518 82.2109L14.9957 83.007C15.3573 83.2501 15.7052 83.5159 16.0379 83.8032C17.3914 84.8316 18.3569 86.3518 18.7578 88.0859C18.0688 88.6556 17.2562 89.0253 16.3974 89.1598C15.5387 89.2944 14.6623 89.1893 13.8518 88.8546C11.8943 88.081 10.171 86.7421 8.86956 84.9837V84.9837Z" fill="#FFE592"/>
<path d="M19.3643 77.1071C19.7914 75.5616 20.3531 74.0633 21.0419 72.6322C21.2573 72.1796 21.4949 71.7398 21.7537 71.3145L22.0588 70.8203C22.1255 70.9725 22.1848 71.1282 22.2366 71.287C22.3637 71.6165 22.5417 72.0557 22.7196 72.6048C22.8976 73.1539 23.1009 73.7853 23.2789 74.4991C23.487 75.1976 23.6401 75.914 23.7365 76.6404C23.945 78.0563 24.0301 79.4901 23.9906 80.9231C23.9362 82.6579 23.3757 84.3298 22.3892 85.7C21.6224 85.4934 20.9209 85.0686 20.3576 84.47C19.7944 83.8713 19.3899 83.1205 19.1863 82.2958C19.0628 81.8944 18.9776 81.4805 18.9321 81.0604C18.9067 80.6216 18.9067 80.1815 18.9321 79.7427C18.9646 79.3087 19.0241 78.8777 19.1101 78.4523C19.1609 77.9856 19.2626 77.5464 19.3643 77.1071Z" fill="#FFE592"/>
<path d="M1.06928 63.4323C1.01325 63.216 0.970816 62.9959 0.942209 62.7734L2.82325 63.8716C4.21677 64.7047 5.5661 65.6213 6.86498 66.6169C8.32447 67.6159 9.62137 68.8681 10.7034 70.3231C10.9388 70.6631 11.1511 71.0209 11.3389 71.3938C11.5405 71.7567 11.7026 72.1437 11.8219 72.5468C12.0537 73.3839 12.0973 74.2686 11.9489 75.1274C11.1424 75.3776 10.294 75.4286 9.46677 75.2765C8.6395 75.1244 7.85451 74.7732 7.17001 74.2489C6.80644 73.9991 6.45829 73.724 6.12779 73.4253C5.78701 73.0985 5.46445 72.7501 5.16182 72.3821C4.57718 71.6272 4.04213 70.8291 3.56044 69.9937C2.7038 68.4586 2.021 66.818 1.52681 65.107C1.32346 64.3932 1.17096 63.8167 1.06928 63.4323Z" fill="#FFE592"/>
<path d="M16.1128 73.5639C15.4728 73.0603 14.9505 72.4023 14.5876 71.6421C14.4149 71.2648 14.2786 70.8692 14.1809 70.4616C14.0895 70.0569 14.0384 69.6427 14.0284 69.2262C14.0666 67.4465 14.4566 65.6961 15.1723 64.0925C15.8897 62.6656 16.7415 61.3224 17.7142 60.0843C18.0051 59.6877 18.3194 59.3118 18.6548 58.9587L19.0361 58.5469C19.0523 58.7111 19.0523 58.8768 19.0361 59.041C19.1467 59.474 19.2317 59.9142 19.2903 60.3588C19.4904 61.7501 19.6177 63.1524 19.6716 64.5592C19.7345 65.3905 19.7345 66.226 19.6716 67.0574V67.6888C19.6716 67.881 19.6716 68.1007 19.6716 68.2928C19.6024 68.7105 19.509 69.1231 19.3919 69.5282C18.8316 71.2861 17.6539 72.7356 16.1128 73.5639V73.5639Z" fill="#FFE592"/>
<path d="M4.93313 51.5753C5.23816 51.9322 5.51777 52.2891 5.79739 52.6734L6.61084 53.7716C7.1347 54.4808 7.57849 55.255 7.93272 56.0776C8.10151 56.4568 8.23758 56.852 8.33937 57.2581C8.47224 57.6566 8.55767 58.0718 8.59358 58.4935C8.69101 59.3588 8.58615 60.2365 8.28855 61.0467C7.44843 61.1321 6.60135 61.0083 5.81252 60.6846C5.02368 60.361 4.31409 59.8462 3.73839 59.1799C3.42475 58.8578 3.13573 58.509 2.87413 58.1366C2.60489 57.7418 2.35874 57.3292 2.13701 56.9012C1.69853 56.019 1.32457 55.1011 1.01854 54.1559C0.859814 53.6881 0.724044 53.2116 0.611811 52.7283C0.611811 52.2616 0.433857 51.7675 0.357597 51.3282C0.188336 50.5048 0.0694164 49.6702 0.00168328 48.83C0.00168328 47.3749 0.00168328 46.4141 0.00168328 46.4141C0.00168328 46.4141 0.66261 46.9906 1.60314 47.9514C2.54367 48.9123 3.76382 50.1752 4.93313 51.5753Z" fill="#FFE592"/>
<path d="M11.4415 57.8311C11.3309 57.4392 11.2711 57.0327 11.2636 56.6231C11.2132 56.2131 11.2132 55.7977 11.2636 55.3877C11.4264 54.5308 11.6912 53.7003 12.0516 52.9169C12.1348 52.7193 12.2281 52.5268 12.3312 52.3404L12.6616 51.7639C12.9158 51.3795 13.17 51.0226 13.4242 50.6932C13.9126 50.0273 14.4481 49.4031 15.0257 48.8264C15.2755 48.5639 15.5386 48.3164 15.8137 48.0851L16.5763 47.4537C17.0987 47.046 17.6418 46.6703 18.2031 46.3281C18.2031 46.3281 18.2031 47.0145 18.2031 48.0851C18.2031 48.3597 18.2031 48.6617 18.2031 48.9636C18.2031 49.2656 18.2031 49.5951 18.2031 49.952C18.2031 50.3089 17.9998 51.3795 17.8473 52.1482C17.7388 52.9427 17.5599 53.7241 17.3134 54.4818C17.1871 54.8688 17.0341 55.245 16.8559 55.6074C16.7258 55.9883 16.5641 56.3559 16.3729 56.7055C15.5864 58.2569 14.2891 59.4326 12.7379 59.9999C12.1306 59.4182 11.6823 58.6682 11.4415 57.8311V57.8311Z" fill="#FFE592"/>
<path d="M8.12915 41.6362C8.27987 42.461 8.27987 43.3097 8.12915 44.1345C7.98558 44.9875 7.70149 45.8057 7.29033 46.5503C6.45137 46.4237 5.65137 46.0873 4.95408 45.5678C4.2568 45.0482 3.68145 44.36 3.27396 43.5579C2.81712 42.6925 2.4587 41.7708 2.20638 40.8126C1.98431 39.8301 1.83972 38.829 1.77421 37.8202V36.3377C1.77421 35.8436 1.77421 35.3494 1.77421 34.9101C1.77421 33.9767 1.92674 33.1257 2.02842 32.3844C2.30804 30.9569 2.56221 30.0234 2.56221 30.0234C2.56221 30.0234 3.04517 30.7921 3.7315 31.9726L4.90087 34.0042C5.30758 34.7729 5.73969 35.5965 6.14641 36.4201C6.55313 37.2437 6.95987 38.1222 7.29033 39.0007C7.6565 39.8442 7.93769 40.7278 8.12915 41.6362V41.6362Z" fill="#FFE592"/>
<path d="M11.6403 41.3937C11.9909 40.6132 12.4447 39.8918 12.9875 39.2523C13.2417 38.9229 13.5467 38.6209 13.8263 38.3189C14.106 38.0169 14.4873 37.7424 14.7923 37.4953C16.5114 36.2153 18.4325 35.285 20.4609 34.75C20.3233 35.3189 20.1534 35.8782 19.9525 36.4247C19.7746 36.9188 19.6221 37.4953 19.3679 38.1268C19.2477 38.4544 19.112 38.7751 18.9612 39.0876C18.8385 39.4452 18.6941 39.7937 18.529 40.1309C18.2281 40.8456 17.862 41.5262 17.436 42.1624C17.0458 42.8475 16.5853 43.4829 16.0633 44.0567C14.9349 45.2993 13.4449 46.0846 11.8436 46.2804C11.6252 45.9098 11.4461 45.5138 11.3098 45.0999C11.2233 44.7034 11.1723 44.299 11.1573 43.892C11.1517 43.0316 11.3164 42.1798 11.6403 41.3937V41.3937Z" fill="#FFE592"/>
<path d="M9.17339 15.3359L9.88514 17.5048C10.3173 18.85 10.7748 20.5795 11.2324 22.4189C11.4357 23.3523 11.5883 24.2583 11.7154 25.1642C11.8188 26.0759 11.8188 26.9979 11.7154 27.9096C11.6896 28.3245 11.6386 28.7372 11.5629 29.145C11.4915 29.5499 11.3808 29.9456 11.2324 30.3255C11.0874 30.7115 10.8904 31.0723 10.6477 31.3961C10.4281 31.7629 10.163 32.0955 9.8597 32.3845C9.0701 32.0299 8.36588 31.4853 7.8007 30.7922C7.27535 30.101 6.89388 29.2957 6.68223 28.4312C6.55092 27.9726 6.44901 27.5048 6.3772 27.0311C6.35102 26.5465 6.35102 26.0606 6.3772 25.576C6.39858 24.5735 6.48353 23.5737 6.63142 22.5836C6.94784 20.8215 7.45995 19.107 8.15662 17.4773C8.41082 16.8459 8.66498 16.2968 8.84292 15.9125C8.94225 15.7133 9.05261 15.5208 9.17339 15.3359Z" fill="#FFE592"/>
<path d="M14.5346 29.0884C14.7138 28.7273 14.9267 28.387 15.1701 28.0726C15.6959 27.4281 16.2936 26.8564 16.9495 26.3705C17.6324 25.8851 18.3662 25.4889 19.1355 25.19C19.5168 25.0253 19.8981 24.8606 20.254 24.7508L21.3725 24.4213C22.1097 24.2566 22.7706 24.1468 23.3552 24.0644H24.7279C24.9055 24.0462 25.0842 24.0462 25.2617 24.0644L25.033 24.4763C24.8804 24.7233 24.6771 25.1077 24.3975 25.5469C24.2563 25.7931 24.1036 26.0313 23.9399 26.2607C23.8699 26.3995 23.7846 26.5285 23.6857 26.645L23.4315 27.0569C23.039 27.6506 22.6146 28.2189 22.1605 28.759C21.6918 29.3663 21.1821 29.9352 20.6354 30.4611L20.2032 30.8454L19.771 31.2023C19.4773 31.4533 19.1625 31.6739 18.8305 31.8612C18.1662 32.2801 17.446 32.5857 16.6953 32.7672C15.8573 32.9591 14.9913 32.9591 14.1533 32.7672C14.0241 32.3605 13.9555 31.9342 13.95 31.5043C13.9406 31.0973 13.9834 30.6908 14.077 30.2963C14.1898 29.8774 14.3432 29.4726 14.5346 29.0884V29.0884Z" fill="#FFE592"/>
<path d="M15.7554 19.429C15.0857 18.8806 14.5391 18.1762 14.1562 17.3682C13.7734 16.5602 13.5641 15.6694 13.5439 14.762C13.5149 13.8402 13.5918 12.9181 13.7726 12.0166C13.983 11.0751 14.2722 10.1562 14.6369 9.27131C14.9786 8.40842 15.3779 7.57346 15.8316 6.77305C16.2083 6.06924 16.6243 5.39082 17.0772 4.7415C17.383 4.28128 17.7141 3.84123 18.0686 3.42373L18.4753 2.95703C18.4753 2.95703 18.4753 3.86299 18.7295 5.20821C18.7295 5.89454 18.882 6.71814 18.9583 7.5692C19.0346 8.42025 18.9583 8.44771 18.9583 8.88697C18.9583 9.32622 18.9583 9.82037 18.9583 10.2871C19.0454 12.1345 18.874 13.9855 18.4499 15.7777C18.2518 16.5765 17.9059 17.3236 17.4331 17.974C16.9764 18.5827 16.4043 19.0789 15.7554 19.429V19.429Z" fill="#FFE592"/>
<path d="M21.6068 16.1644C22.9487 15.1714 24.4917 14.5406 26.1061 14.325C26.8798 14.1949 27.6617 14.1307 28.4447 14.1329C29.1819 14.1329 29.8682 14.1329 30.4529 14.1329C31.6222 14.2701 32.3594 14.4349 32.3594 14.4349L32.0544 14.7917L31.2155 15.7252L29.9191 16.988C29.4361 17.4273 28.9023 17.894 28.3176 18.3607C27.7252 18.8389 27.0959 19.2614 26.4366 19.6235C25.7939 20.0434 25.1012 20.3667 24.3776 20.5844C22.8305 21.1069 21.1608 21.0095 19.6749 20.3099C19.6357 19.4727 19.8023 18.6391 20.1579 17.894C20.5409 17.2283 21.0317 16.6424 21.6068 16.1644V16.1644Z" fill="#FFE592"/>
<path d="M60.1303 28.8752C59.1887 25.6758 58.8632 24.4892 58.526 23.0582C58.1424 23.0931 57.9564 23.1047 57.7006 23.1047C57.4565 23.1047 57.2705 23.0931 56.9333 23.0582L56.9915 23.2559C57.1658 23.7795 57.3286 24.303 57.4914 24.8265C57.6309 25.257 57.8401 25.9318 58.1191 26.8625C58.7237 28.817 58.898 29.422 59.2933 30.9112C59.5142 30.8763 59.6304 30.8646 59.8048 30.8646C59.9792 30.8646 60.0838 30.8763 60.2931 30.9112C60.5488 30.0851 60.5837 29.9921 61.3859 27.77C61.909 26.3041 62.1532 25.6409 62.2927 25.2454L62.3857 25.0011C63.3622 27.8165 63.9435 29.5965 64.3039 30.9112C64.548 30.8763 64.6643 30.8646 64.8386 30.8646C65.0014 30.8646 65.106 30.8763 65.3037 30.9112C65.478 30.2829 65.9198 28.9566 66.6173 26.9439C67.28 25.0127 67.4892 24.4543 68.0356 23.0582C67.7101 23.0931 67.6055 23.1047 67.4892 23.1047C67.3497 23.1047 67.2451 23.0931 67.0358 23.0582C66.7452 24.3496 66.1523 26.3041 65.2106 29.1079C65.0595 28.724 64.9781 28.4796 64.6991 27.6187C64.5247 27.0603 64.3852 26.6182 64.2109 26.1528C63.6761 24.5473 63.5133 24.0005 63.2459 23.0582C63.0134 23.0931 62.8972 23.1047 62.7693 23.1047C62.6414 23.1047 62.5368 23.0931 62.2927 23.0582C62.1067 23.7097 62.0602 23.8609 61.2696 26.1645C60.421 28.5843 60.421 28.596 60.3047 28.8985C60.2815 28.9799 60.2466 29.073 60.2117 29.1544L60.1303 28.8752Z" fill="#FFE592"/>
<path d="M68.3225 23.0582C68.4039 23.9075 68.4504 25.129 68.4504 26.7462C68.4504 28.5378 68.4039 30.0619 68.3225 30.9112C68.6829 30.8763 68.8806 30.8646 69.1363 30.8646C69.3921 30.8646 69.5781 30.8763 69.9385 30.9112C69.8687 30.1666 69.8222 28.7007 69.8222 26.909C69.8222 25.3617 69.8571 24.1052 69.9385 23.0582C69.6362 23.0931 69.4735 23.1047 69.1828 23.1047C68.8922 23.1047 68.6946 23.0931 68.3225 23.0582Z" fill="#FFE592"/>
<path d="M72.0772 25.3384L72.984 26.3041C74.8324 28.2353 75.9717 29.4918 77.204 30.9693C77.3203 30.9461 77.3784 30.9461 77.483 30.9461C77.5877 30.9461 77.669 30.9577 77.8318 30.9693C77.8202 30.6087 77.8202 30.4458 77.8202 29.9921V29.6198C77.8202 26.1645 77.8667 24.8033 78.0178 23.0582C77.7737 23.0931 77.669 23.1047 77.5412 23.1047C77.4133 23.1047 77.3086 23.0931 77.0761 23.0582C77.1343 24.1518 77.1575 25.1639 77.1575 26.5833V28.7007L76.9483 28.4796L75.995 27.4558L74.9836 26.3622C72.5655 23.7911 72.3213 23.5235 71.8679 23C71.7284 23.0233 71.6703 23.0233 71.5424 23.0233C71.4029 23.0233 71.3099 23.0116 71.1123 23C71.1588 23.6282 71.182 24.4892 71.182 25.5362C71.182 27.4907 71.1123 29.8059 71.0309 30.9112C71.2285 30.8763 71.3215 30.8646 71.4959 30.8646C71.6587 30.8646 71.7749 30.8763 71.9958 30.9112C71.8912 29.9106 71.8563 28.7356 71.8563 26.6415C71.8563 26.0481 71.8563 25.6293 71.8679 25.1407L72.0772 25.3384Z" fill="#FFE592"/>
<path d="M80.1101 25.3384L81.0169 26.3041C82.8653 28.2353 84.0046 29.4918 85.2369 30.9693C85.3532 30.9461 85.4113 30.9461 85.5159 30.9461C85.6206 30.9461 85.7019 30.9577 85.8647 30.9693C85.8531 30.6087 85.8531 30.4458 85.8531 29.9921V29.6198C85.8531 26.1645 85.8996 24.8033 86.0507 23.0582C85.8066 23.0931 85.7019 23.1047 85.5741 23.1047C85.4462 23.1047 85.3415 23.0931 85.109 23.0582C85.1672 24.1518 85.1904 25.1639 85.1904 26.5833V28.7007L84.9812 28.4796L84.0279 27.4558L83.0165 26.3622C80.5984 23.7911 80.3542 23.5235 79.9008 23C79.7613 23.0233 79.7032 23.0233 79.5753 23.0233C79.4358 23.0233 79.3428 23.0116 79.1452 23C79.1917 23.6282 79.2149 24.4892 79.2149 25.5362C79.2149 27.4907 79.1452 29.8059 79.0638 30.9112C79.2614 30.8763 79.3544 30.8646 79.5288 30.8646C79.6916 30.8646 79.8078 30.8763 80.0287 30.9112C79.9241 29.9106 79.8892 28.7356 79.8892 26.6415C79.8892 26.0481 79.8892 25.6293 79.9008 25.1407L80.1101 25.3384Z" fill="#FFE592"/>
<path d="M88.5964 27.2697C88.5964 27.2464 88.5964 27.1999 88.608 27.1068H88.8638C89.5032 27.1068 90.7006 27.1534 91.3051 27.1999C91.2586 27.037 91.247 26.9439 91.247 26.7927C91.247 26.6298 91.2586 26.5368 91.3051 26.3506C90.5379 26.4204 89.6311 26.4553 88.9103 26.4553C88.8754 26.4553 88.7475 26.4553 88.608 26.4437C88.608 25.6758 88.6197 25.2803 88.6545 24.4543L88.6662 23.9424L88.6778 23.8027C89.8403 23.8144 90.5844 23.8493 91.4563 23.9307C91.4214 23.7329 91.4098 23.6399 91.4098 23.5003C91.4098 23.349 91.4214 23.2443 91.4563 23.0582C90.9331 23.0931 90.0612 23.128 89.3404 23.128C88.3871 23.128 87.678 23.1047 87.1083 23.0582C87.1781 23.8842 87.213 25.3268 87.213 26.909C87.213 28.4098 87.1665 29.8525 87.0967 30.9112C87.5966 30.8879 88.6778 30.8646 89.3521 30.8646C89.7589 30.8646 90.6657 30.8879 91.433 30.9112C91.3981 30.725 91.3865 30.6436 91.3865 30.4807C91.3865 30.3178 91.3981 30.2364 91.433 30.0619C90.875 30.1317 89.6659 30.2015 88.9568 30.2015C88.9103 30.2015 88.7824 30.2015 88.6545 30.1898C88.6197 29.1428 88.608 28.9334 88.608 27.8979L88.5964 27.2697Z" fill="#FFE592"/>
<path d="M93.8641 27.2232C94.3524 27.8863 95.48 29.6081 96.2822 30.9112C96.6426 30.8763 96.817 30.8646 97.1192 30.8646C97.3982 30.8646 97.6307 30.8763 98.0958 30.9112C97.6889 30.376 96.9448 29.3522 96.0148 28.0026C95.6195 27.4442 95.3986 27.1301 95.3405 27.037C95.8172 26.9323 96.1194 26.816 96.3984 26.6531C97.0262 26.2808 97.3866 25.6526 97.3866 24.9313C97.3866 24.3146 97.1076 23.7678 96.6426 23.4421C96.2473 23.1745 95.7358 23.0582 94.9801 23.0582C94.7592 23.0582 94.4337 23.0698 94.0385 23.0814C93.6548 23.0931 93.3409 23.1047 93.1317 23.1047C92.7713 23.1047 92.5504 23.0931 92.1551 23.0582C92.2365 23.8493 92.2714 25.0476 92.2714 26.5018C92.2714 28.5029 92.2365 29.8641 92.1551 30.9112C92.469 30.8763 92.6318 30.8646 92.9224 30.8646C93.2131 30.8646 93.4107 30.8763 93.7711 30.9112C93.6897 30.0735 93.6316 28.7821 93.6316 27.5722V27.2232H93.8641ZM93.6316 26.56C93.6316 25.4897 93.6665 24.0354 93.6897 23.6515C94.0966 23.6166 94.2826 23.605 94.3872 23.605C95.3405 23.605 95.8985 24.1518 95.8985 25.0709C95.8985 26.1296 95.201 26.7811 94.0733 26.7811C93.9455 26.7811 93.8292 26.7811 93.6316 26.7578V26.56Z" fill="#FFE592"/>
<path d="M100.264 30.9112C100.927 30.8763 101.566 30.8646 102.52 30.8646C103.74 30.8646 104.589 30.8763 105.263 30.9112C105.217 30.6552 105.205 30.5156 105.205 30.2829C105.205 30.0386 105.217 29.9223 105.263 29.6779C104.252 29.7477 103.194 29.7827 102.299 29.7827C102.229 29.7827 102.008 29.7827 101.787 29.771C102.148 29.3755 102.415 29.1195 103.333 28.2586C104.136 27.5024 104.357 27.2697 104.647 26.9207C105.008 26.4437 105.205 25.8852 105.205 25.3035C105.205 24.0005 104.298 23.2327 102.752 23.2327C101.613 23.2327 100.869 23.6515 100.45 24.5241C100.683 24.7102 100.962 24.9894 101.16 25.2337L101.276 25.2105C101.334 24.3263 101.845 23.7213 102.508 23.7213C103.206 23.7213 103.705 24.3263 103.705 25.1872C103.705 26.1412 103.322 27.1301 102.543 28.119C101.962 28.8636 101.497 29.3522 100.264 30.5389V30.9112Z" fill="#FFE592"/>
<path d="M108.679 23.2327C106.866 23.2327 105.936 24.559 105.936 27.1301C105.936 29.6896 106.877 31.0391 108.644 31.0391C110.435 31.0391 111.365 29.6896 111.365 27.1301C111.365 25.8271 111.144 24.8847 110.679 24.2332C110.225 23.5933 109.505 23.2327 108.679 23.2327ZM108.656 23.6515C109.156 23.6515 109.551 24.0354 109.714 24.6986C109.877 25.3035 109.935 25.9434 109.935 27.1185C109.935 28.2935 109.877 28.945 109.714 29.55C109.539 30.2247 109.167 30.597 108.644 30.597C108.121 30.597 107.749 30.2247 107.563 29.55C107.412 28.945 107.354 28.2935 107.354 27.1301C107.354 24.5939 107.703 23.6515 108.656 23.6515Z" fill="#FFE592"/>
<path d="M115.211 23.0582C114.095 23.6282 112.618 24.2797 111.967 24.4775C112.13 24.5939 112.339 24.8265 112.479 25.036C112.734 24.908 112.734 24.908 113.234 24.6404C113.513 24.4892 113.653 24.4077 113.944 24.2681V24.4892C113.955 25.8387 113.955 25.8852 113.955 26.2459C113.955 28.4564 113.932 29.3289 113.827 30.9112C114.188 30.8763 114.362 30.8646 114.595 30.8646C114.827 30.8646 114.99 30.8763 115.339 30.9112C115.28 29.9804 115.257 28.7007 115.257 27.1534C115.257 25.5479 115.292 24.4543 115.385 23.1396L115.211 23.0582Z" fill="#FFE592"/>
<path d="M117.662 30.0502C117.755 30.3876 117.824 30.6436 117.871 30.8064C118.313 30.981 118.65 31.0508 119.057 31.0508C120.01 31.0508 120.859 30.6552 121.44 29.9339C122.137 29.073 122.521 27.8514 122.521 26.5018C122.521 24.3496 121.638 23.1978 119.963 23.1978C118.371 23.1978 117.266 24.2099 117.266 25.6875C117.266 27.0021 118.15 27.8863 119.452 27.8863C120.161 27.8863 120.661 27.642 121.126 27.0836C121.033 29.2591 120.242 30.6087 119.045 30.6087C118.58 30.6087 118.15 30.4109 117.743 30.0037L117.662 30.0502ZM119.905 23.6515C120.603 23.6515 121.056 24.3845 121.056 25.513C121.056 26.6415 120.591 27.3511 119.847 27.3511C119.126 27.3511 118.696 26.6996 118.696 25.5944C118.696 24.3496 119.138 23.6515 119.905 23.6515Z" fill="#FFE592"/>
<path d="M46.2231 47.206C45.6723 47.2257 45.2985 47.2454 45.1411 47.2454C44.7673 47.2454 44.5115 47.2257 44.059 47.1863C44.1377 48.1313 44.1967 50.8286 44.1967 53.1125C44.1967 57.5621 44.1574 58.9599 44 60.476C44.4918 60.4169 44.7279 60.3972 45.1214 60.3972C45.3181 60.3972 45.7116 60.4169 46.2428 60.4366C46.6953 60.4563 47.0888 60.476 47.3839 60.476C49.0168 60.476 50.1776 60.2003 51.1416 59.5703C52.145 58.9206 52.7745 57.759 52.7745 56.5383C52.7745 54.7073 51.5744 53.6638 49.0955 53.2897C49.9808 53.0928 50.4137 52.8959 50.9449 52.5415C51.7712 51.9706 52.263 51.0255 52.263 50.0214C52.263 48.7811 51.6138 47.8557 50.453 47.5013C49.7054 47.265 48.8988 47.1863 47.4626 47.1863L46.2231 47.206ZM45.7313 52.8172L45.751 51.754C45.751 49.7064 45.751 49.5686 45.81 47.9935C46.4396 47.9148 46.7543 47.8951 47.2462 47.8951C49.489 47.8951 50.5514 48.7023 50.5514 50.3758C50.5514 52.2265 49.1939 53.1125 46.3609 53.1125C46.1641 53.1125 46.0067 53.1125 45.7313 53.0928V52.8172ZM45.751 54.0772L45.7706 53.8016C46.4396 53.7819 46.715 53.7622 47.0494 53.7622C48.2102 53.7622 48.9775 53.8803 49.607 54.1757C50.453 54.5497 50.9645 55.4554 50.9645 56.5777C50.9645 57.6014 50.5317 58.5465 49.8235 59.0781C49.2136 59.5506 48.3873 59.7672 47.2462 59.7672C46.8134 59.7672 46.4396 59.7475 45.8297 59.649C45.7903 59.0978 45.751 57.3061 45.751 56.6958V54.0772Z" fill="#FFE592"/>
<path d="M61.6457 58.5662C60.8391 59.4718 59.8161 59.9444 58.616 59.9444C56.6486 59.9444 55.3501 58.4874 55.3501 56.2823V55.8492C56.6879 55.8098 57.6519 55.7901 58.8717 55.7901C60.5243 55.7901 61.449 55.8098 62.0786 55.8492C62.0982 55.6129 62.0982 55.3767 62.0982 55.2388C62.0982 52.64 60.662 51.1437 58.1635 51.1437C56.7076 51.1437 55.6649 51.5374 54.8779 52.4037C54.0516 53.2897 53.6385 54.5104 53.6385 56.0067C53.6385 58.9009 55.4288 60.7319 58.2618 60.7319C59.58 60.7319 60.3866 60.4563 61.6064 59.59C61.6064 59.1962 61.6261 59.1175 61.7244 58.7828L61.7638 58.6056L61.6457 58.5662ZM60.544 55.042C59.8751 55.1207 59.6783 55.1207 58.3799 55.1207C56.865 55.1207 55.96 55.101 55.3698 55.0813C55.5075 53.0534 56.5896 51.754 58.1241 51.754C59.1275 51.754 59.8554 52.2659 60.2292 53.2306C60.4063 53.6638 60.485 54.156 60.544 55.042Z" fill="#FFE592"/>
<path d="M62.9162 58.6646C62.7785 59.2356 62.6408 59.7475 62.5031 60.0822C63.1523 60.4956 64.0573 60.7319 64.9623 60.7319C66.9887 60.7319 68.5036 59.4325 68.5036 57.6802C68.5036 56.4005 67.874 55.7311 66.2018 55.2782C65.1394 54.9829 64.8443 54.8648 64.5098 54.6285C64.136 54.3726 63.8999 53.9 63.8999 53.3881C63.8999 52.4431 64.6279 51.7737 65.6509 51.7737C66.6739 51.7737 67.3625 52.2659 67.5789 53.1322H67.7757C67.9331 52.5218 67.9331 52.4825 68.2872 51.6162C67.3822 51.2618 66.792 51.1437 65.9657 51.1437C63.8999 51.1437 62.6014 52.2068 62.6014 53.9C62.6014 54.6482 62.9162 55.3767 63.4277 55.7704C63.8212 56.0854 64.2147 56.2626 65.3558 56.5973C66.733 56.9911 67.2051 57.4439 67.2051 58.3299C67.2051 59.2947 66.3985 60.0428 65.3361 60.0428C64.3721 60.0428 63.6835 59.6097 63.0736 58.6646H62.9162Z" fill="#FFE592"/>
<path d="M71.4866 48.7023C70.9751 48.9976 70.3849 49.2536 69.8537 49.3717C69.9127 50.0411 69.9718 50.9468 69.9718 51.2421V51.498H68.6733C68.7126 51.6556 68.7323 51.754 68.7323 51.8918C68.7323 52.0296 68.7126 52.1084 68.6733 52.2659C68.8897 52.2462 69.2241 52.2265 69.9324 52.2265C69.9521 52.4628 69.9521 52.5218 69.9521 52.9156C69.9521 54.0379 69.9127 56.2823 69.8734 57.0305C69.8537 57.5621 69.834 58.0937 69.834 58.2709C69.834 59.7278 70.6997 60.6532 72.0769 60.6532C72.5884 60.6532 72.9622 60.5744 73.7491 60.3381V59.8853C73.395 59.9837 73.1786 60.0231 72.8835 60.0231C72.2736 60.0231 71.8211 59.7475 71.585 59.275C71.3686 58.8221 71.3292 58.448 71.3292 57.2077V55.4751C71.3686 52.8369 71.3686 52.8172 71.4079 52.2265H73.513C73.454 52.0493 73.4343 51.9509 73.4343 51.8524C73.4343 51.754 73.454 51.6556 73.513 51.439L71.3883 51.4784C71.4079 50.8877 71.4079 50.5333 71.4473 50.1592L71.526 49.0173L71.5457 48.7811L71.4866 48.7023Z" fill="#FFE592"/>
<path d="M84.7073 50.9074C84.6876 51.9115 84.6876 52.3446 84.6876 52.64C84.6876 52.6597 84.6876 52.8565 84.7073 53.0141C84.1958 51.7934 83.1334 51.1437 81.6579 51.1437C79.0806 51.1437 77.4477 53.0928 77.4477 56.1445C77.4477 58.8812 79.0216 60.6925 81.4021 60.6925C82.9367 60.6925 84.0187 60.0034 84.727 58.5465V59.019L84.6679 60.476C84.9827 60.4169 85.1795 60.3972 85.4352 60.3972C85.7107 60.3972 85.8484 60.4169 86.1238 60.476C86.0845 59.9247 86.0845 59.8853 86.0845 59.1765C86.0845 58.7434 86.0845 57.5424 86.0648 55.5932L86.1041 50.868C86.2025 46.8516 86.2025 46.8122 86.2812 45.9656C85.9664 46.0247 85.7697 46.0444 85.5139 46.0444C85.2778 46.0444 85.0811 46.0247 84.6089 45.9656C84.6679 47.0682 84.7073 48.3676 84.7073 50.1986V50.9074ZM82.012 51.8918C83.6646 51.8918 84.6876 53.3488 84.6876 55.6917C84.6876 58.2905 83.5662 59.9641 81.8349 59.9641C80.143 59.9641 79.1593 58.5465 79.1593 56.1445C79.1593 53.3881 80.1626 51.8918 82.012 51.8918Z" fill="#FFE592"/>
<path d="M95.1681 58.5662C94.3615 59.4718 93.3384 59.9444 92.1383 59.9444C90.1709 59.9444 88.8725 58.4874 88.8725 56.2823V55.8492C90.2103 55.8098 91.1743 55.7901 92.3941 55.7901C94.0467 55.7901 94.9713 55.8098 95.6009 55.8492C95.6206 55.6129 95.6206 55.3767 95.6206 55.2388C95.6206 52.64 94.1844 51.1437 91.6858 51.1437C90.2299 51.1437 89.1872 51.5374 88.4003 52.4037C87.574 53.2897 87.1608 54.5104 87.1608 56.0067C87.1608 58.9009 88.9512 60.7319 91.7842 60.7319C93.1023 60.7319 93.909 60.4563 95.1287 59.59C95.1287 59.1962 95.1484 59.1175 95.2468 58.7828L95.2861 58.6056L95.1681 58.5662ZM94.0663 55.042C93.3974 55.1207 93.2007 55.1207 91.9022 55.1207C90.3873 55.1207 89.4823 55.101 88.8921 55.0813C89.0298 53.0534 90.1119 51.754 91.6465 51.754C92.6498 51.754 93.3778 52.2659 93.7516 53.2306C93.9286 53.6638 94.0073 54.156 94.0663 55.042Z" fill="#FFE592"/>
<path d="M96.402 45.9853C96.4807 47.3438 96.52 49.037 96.52 52.6203C96.52 57.503 96.52 58.1133 96.402 60.476C96.8348 60.4169 97.0316 60.3972 97.248 60.3972C97.4644 60.3972 97.6414 60.4169 98.0743 60.476C98.0152 59.4325 97.9562 56.3611 97.9562 53.0928C97.9562 50.7696 98.0152 47.0091 98.0743 45.9853C97.7595 46.0247 97.6021 46.0444 97.2676 46.0444C96.9332 46.0444 96.7561 46.0247 96.402 45.9853Z" fill="#FFE592"/>
<path d="M99.4877 51.2815C99.5861 52.4037 99.6451 54.0182 99.6451 56.2233C99.6451 58.2512 99.6058 59.3734 99.4877 60.476C99.9009 60.4169 100.117 60.3972 100.373 60.3972C100.648 60.3972 100.845 60.4169 101.18 60.476C101.121 59.6097 101.062 57.3061 101.062 56.0461C101.062 54.4119 101.121 52.0493 101.18 51.2815C100.865 51.3405 100.688 51.3602 100.393 51.3602C100.078 51.3602 99.8615 51.3405 99.4877 51.2815ZM100.412 47.0091C99.8418 47.0091 99.409 47.4422 99.409 47.9935C99.409 48.5448 99.8418 48.9779 100.393 48.9779C100.944 48.9779 101.376 48.5448 101.376 47.9935C101.376 47.4619 100.924 47.0091 100.412 47.0091Z" fill="#FFE592"/>
<path d="M102.512 58.6646C102.374 59.2356 102.237 59.7475 102.099 60.0822C102.748 60.4956 103.653 60.7319 104.558 60.7319C106.585 60.7319 108.099 59.4325 108.099 57.6802C108.099 56.4005 107.47 55.7311 105.798 55.2782C104.735 54.9829 104.44 54.8648 104.106 54.6285C103.732 54.3726 103.496 53.9 103.496 53.3881C103.496 52.4431 104.224 51.7737 105.247 51.7737C106.27 51.7737 106.958 52.2659 107.175 53.1322H107.372C107.529 52.5218 107.529 52.4825 107.883 51.6162C106.978 51.2618 106.388 51.1437 105.562 51.1437C103.496 51.1437 102.197 52.2068 102.197 53.9C102.197 54.6482 102.512 55.3767 103.024 55.7704C103.417 56.0854 103.811 56.2626 104.952 56.5973C106.329 56.9911 106.801 57.4439 106.801 58.3299C106.801 59.2947 105.994 60.0428 104.932 60.0428C103.968 60.0428 103.279 59.6097 102.669 58.6646H102.512Z" fill="#FFE592"/>
<path d="M109.022 53.1716C109.022 57.1683 108.982 58.9993 108.884 60.476C109.356 60.4169 109.514 60.3972 109.71 60.3972C109.907 60.3972 110.045 60.4169 110.556 60.476C110.497 59.5703 110.458 58.0149 110.458 56.1839C110.458 54.5694 110.537 53.9394 110.832 53.3684C111.245 52.5809 112.052 52.1084 112.976 52.1084C113.685 52.1084 114.353 52.4234 114.747 52.9156C115.101 53.3881 115.278 54.0575 115.278 55.042C115.278 56.8139 115.199 59.6687 115.121 60.476C115.534 60.4169 115.711 60.3972 115.908 60.3972C116.085 60.3972 116.163 60.3972 116.793 60.476C116.734 59.7081 116.695 58.7631 116.695 57.503C116.695 56.9714 116.714 56.3217 116.734 55.6523C116.754 55.1207 116.773 54.6285 116.773 54.3332C116.773 53.2503 116.498 52.5415 115.868 51.9706C115.278 51.439 114.471 51.1437 113.586 51.1437C112.15 51.1437 110.989 51.8721 110.458 53.0928V52.6794C110.458 49.0961 110.478 47.6391 110.556 45.9656C110.261 46.0247 110.124 46.0444 109.809 46.0444C109.435 46.0444 109.258 46.0247 108.884 45.9656C108.963 47.1469 109.022 49.4898 109.022 51.3405V53.1716Z" fill="#FFE592"/>
<path d="M118.31 51.2815C118.408 52.4037 118.467 54.0182 118.467 56.2233C118.467 58.2512 118.428 59.3734 118.31 60.476C118.723 60.4169 118.94 60.3972 119.195 60.3972C119.471 60.3972 119.668 60.4169 120.002 60.476C119.943 59.6097 119.884 57.3061 119.884 56.0461C119.884 54.4119 119.943 52.0493 120.002 51.2815C119.687 51.3405 119.51 51.3602 119.215 51.3602C118.9 51.3602 118.684 51.3405 118.31 51.2815ZM119.235 47.0091C118.664 47.0091 118.231 47.4422 118.231 47.9935C118.231 48.5448 118.664 48.9779 119.215 48.9779C119.766 48.9779 120.199 48.5448 120.199 47.9935C120.199 47.4619 119.746 47.0091 119.235 47.0091Z" fill="#FFE592"/>
<path d="M125.899 51.1437C122.908 51.1437 121.059 52.9747 121.059 55.9476C121.059 58.8615 122.908 60.7319 125.761 60.7319C128.594 60.7319 130.483 58.8418 130.483 56.0461C130.483 52.955 128.791 51.1437 125.899 51.1437ZM125.781 51.754C127.728 51.754 128.771 53.2503 128.771 56.0067C128.771 58.5268 127.61 60.1216 125.781 60.1216C123.912 60.1216 122.771 58.5465 122.771 55.9279C122.771 53.3291 123.892 51.754 125.781 51.754Z" fill="#FFE592"/>
<path d="M131.413 58.6646C131.275 59.2356 131.137 59.7475 130.999 60.0822C131.649 60.4956 132.554 60.7319 133.459 60.7319C135.485 60.7319 137 59.4325 137 57.6802C137 56.4005 136.37 55.7311 134.698 55.2782C133.636 54.9829 133.341 54.8648 133.006 54.6285C132.632 54.3726 132.396 53.9 132.396 53.3881C132.396 52.4431 133.124 51.7737 134.147 51.7737C135.17 51.7737 135.859 52.2659 136.075 53.1322H136.272C136.429 52.5218 136.429 52.4825 136.784 51.6162C135.879 51.2618 135.288 51.1437 134.462 51.1437C132.396 51.1437 131.098 52.2068 131.098 53.9C131.098 54.6482 131.413 55.3767 131.924 55.7704C132.318 56.0854 132.711 56.2626 133.852 56.5973C135.229 56.9911 135.702 57.4439 135.702 58.3299C135.702 59.2947 134.895 60.0428 133.833 60.0428C132.868 60.0428 132.18 59.6097 131.57 58.6646H131.413Z" fill="#FFE592"/>
<path d="M61.0494 70.4544C61.1871 71.9507 61.2461 74.1755 61.2461 76.9909C61.2461 79.5701 61.1477 82.9171 61.0494 83.7441C61.6199 83.685 61.9544 83.6653 62.4462 83.6653C62.7216 83.6653 63.1545 83.685 63.7644 83.7047C64.4333 83.7244 65.1612 83.7441 65.4956 83.7441C67.9549 83.7441 69.4304 83.3306 70.7682 82.2871C72.3815 81.0074 73.3062 78.9598 73.3062 76.5972C73.3062 74.6677 72.6766 73.0729 71.4765 71.9507C70.3157 70.8678 69.0173 70.4544 66.7351 70.4544C66.1646 70.4544 65.3383 70.4741 64.5907 70.4938C63.607 70.5135 62.8987 70.5331 62.5446 70.5331C61.915 70.5331 61.6002 70.5135 61.0494 70.4544ZM62.9184 82.8581C62.8397 81.9327 62.8003 79.2551 62.8003 76.7744C62.8003 75.1796 62.8594 72.0885 62.8987 71.3404C63.7447 71.2419 64.2955 71.2025 65.3186 71.2025C67.8172 71.2025 68.9386 71.4979 69.8829 72.4429C70.8666 73.4076 71.3584 74.8843 71.3584 76.8137C71.3584 78.8416 70.8273 80.4364 69.7649 81.5193C68.7025 82.6218 67.3647 83.0156 64.7874 83.0156C64.0595 83.0156 63.607 82.9762 62.9184 82.8581Z" fill="#FFE592"/>
<path d="M82.0957 81.8343C81.2891 82.7399 80.2661 83.2125 79.066 83.2125C77.0986 83.2125 75.8001 81.7555 75.8001 79.5504V79.1173C77.1379 79.0779 78.102 79.0582 79.3217 79.0582C80.9743 79.0582 81.899 79.0779 82.5286 79.1173C82.5482 78.881 82.5482 78.6448 82.5482 78.5069C82.5482 75.9081 81.1121 74.4118 78.6135 74.4118C77.1576 74.4118 76.1149 74.8055 75.3279 75.6718C74.5016 76.5578 74.0885 77.7785 74.0885 79.2748C74.0885 82.169 75.8788 84 78.7118 84C80.03 84 80.8366 83.7244 82.0564 82.8581C82.0564 82.4643 82.0761 82.3856 82.1744 82.0509L82.2138 81.8737L82.0957 81.8343ZM80.994 78.3101C80.3251 78.3888 80.1284 78.3888 78.8299 78.3888C77.315 78.3888 76.41 78.3691 75.8198 78.3494C75.9575 76.3215 77.0396 75.0221 78.5741 75.0221C79.5775 75.0221 80.3054 75.534 80.6792 76.4987C80.8563 76.9319 80.935 77.4241 80.994 78.3101Z" fill="#FFE592"/>
<path d="M83.3662 81.9327C83.2285 82.5037 83.0908 83.0156 82.9531 83.3503C83.6023 83.7637 84.5073 84 85.4123 84C87.4387 84 88.9536 82.7006 88.9536 80.9483C88.9536 79.6686 88.324 78.9991 86.6518 78.5463C85.5894 78.251 85.2943 78.1329 84.9598 77.8966C84.586 77.6406 84.3499 77.1681 84.3499 76.6562C84.3499 75.7112 85.0779 75.0418 86.1009 75.0418C87.1239 75.0418 87.8125 75.534 88.0289 76.4003H88.2257C88.3831 75.7899 88.3831 75.7506 88.7372 74.8843C87.8322 74.5299 87.242 74.4118 86.4157 74.4118C84.3499 74.4118 83.0515 75.4749 83.0515 77.1681C83.0515 77.9163 83.3662 78.6448 83.8778 79.0385C84.2712 79.3535 84.6647 79.5307 85.8058 79.8654C87.183 80.2592 87.6551 80.712 87.6551 81.598C87.6551 82.5628 86.8485 83.3109 85.7861 83.3109C84.8221 83.3109 84.1335 82.8778 83.5236 81.9327H83.3662Z" fill="#FFE592"/>
<path d="M89.5635 81.9327C89.4258 82.5037 89.2881 83.0156 89.1503 83.3503C89.7996 83.7637 90.7046 84 91.6096 84C93.636 84 95.1509 82.7006 95.1509 80.9483C95.1509 79.6686 94.5213 78.9991 92.849 78.5463C91.7866 78.251 91.4915 78.1329 91.1571 77.8966C90.7833 77.6406 90.5472 77.1681 90.5472 76.6562C90.5472 75.7112 91.2751 75.0418 92.2982 75.0418C93.3212 75.0418 94.0098 75.534 94.2262 76.4003H94.4229C94.5803 75.7899 94.5803 75.7506 94.9345 74.8843C94.0295 74.5299 93.4392 74.4118 92.6129 74.4118C90.5472 74.4118 89.2487 75.4749 89.2487 77.1681C89.2487 77.9163 89.5635 78.6448 90.075 79.0385C90.4685 79.3535 90.862 79.5307 92.0031 79.8654C93.3802 80.2592 93.8524 80.712 93.8524 81.598C93.8524 82.5628 93.0458 83.3109 91.9834 83.3109C91.0194 83.3109 90.3308 82.8778 89.7209 81.9327H89.5635Z" fill="#FFE592"/>
<path d="M103.589 81.8343C102.782 82.7399 101.759 83.2125 100.559 83.2125C98.5915 83.2125 97.293 81.7555 97.293 79.5504V79.1173C98.6308 79.0779 99.5948 79.0582 100.815 79.0582C102.467 79.0582 103.392 79.0779 104.021 79.1173C104.041 78.881 104.041 78.6448 104.041 78.5069C104.041 75.9081 102.605 74.4118 100.106 74.4118C98.6505 74.4118 97.6078 74.8055 96.8208 75.6718C95.9945 76.5578 95.5814 77.7785 95.5814 79.2748C95.5814 82.169 97.3717 84 100.205 84C101.523 84 102.33 83.7244 103.549 82.8581C103.549 82.4643 103.569 82.3856 103.667 82.0509L103.707 81.8737L103.589 81.8343ZM102.487 78.3101C101.818 78.3888 101.621 78.3888 100.323 78.3888C98.8079 78.3888 97.9029 78.3691 97.3127 78.3494C97.4504 76.3215 98.5325 75.0221 100.067 75.0221C101.07 75.0221 101.798 75.534 102.172 76.4987C102.349 76.9319 102.428 77.4241 102.487 78.3101Z" fill="#FFE592"/>
<path d="M109.62 76.0656C109.601 75.8884 109.581 75.7506 109.581 75.6718C109.581 75.3568 109.64 74.9433 109.738 74.5496C109.522 74.4511 109.384 74.4118 109.148 74.4118C108.145 74.4118 107.181 75.219 106.512 76.5775C106.512 76.0459 106.512 75.9868 106.531 75.5537L106.551 74.7661V74.5496C106.177 74.6086 106 74.6283 105.803 74.6283C105.587 74.6283 105.43 74.6086 104.977 74.5496C105.135 77.2272 105.135 77.4831 105.135 78.9401C105.135 81.2436 105.076 82.9959 104.977 83.7441C105.41 83.685 105.607 83.6653 105.823 83.6653C106.059 83.6653 106.236 83.685 106.649 83.7441C106.59 83.0746 106.531 81.5783 106.531 80.5152C106.531 78.4479 106.571 77.7194 106.708 77.2863C106.984 76.42 107.732 75.8293 108.538 75.8293C108.892 75.8293 109.168 75.9278 109.482 76.1443L109.62 76.0656Z" fill="#FFE592"/>
<path d="M112.661 71.9704C112.15 72.2657 111.559 72.5217 111.028 72.6398C111.087 73.3092 111.146 74.2149 111.146 74.5102V74.7661H109.848C109.887 74.9237 109.907 75.0221 109.907 75.1599C109.907 75.2977 109.887 75.3765 109.848 75.534C110.064 75.5143 110.399 75.4946 111.107 75.4946C111.126 75.7309 111.126 75.7899 111.126 76.1837C111.126 77.3059 111.087 79.5504 111.048 80.2986C111.028 80.8302 111.008 81.3618 111.008 81.539C111.008 82.9959 111.874 83.9212 113.251 83.9212C113.763 83.9212 114.137 83.8425 114.924 83.6062V83.1534C114.569 83.2518 114.353 83.2912 114.058 83.2912C113.448 83.2912 112.995 83.0156 112.759 82.5431C112.543 82.0902 112.504 81.7161 112.504 80.4758V78.7432C112.543 76.105 112.543 76.0853 112.582 75.4946H114.687C114.628 75.3174 114.609 75.219 114.609 75.1205C114.609 75.0221 114.628 74.9237 114.687 74.7071L112.563 74.7465C112.582 74.1558 112.582 73.8014 112.622 73.4273L112.7 72.2854L112.72 72.0491L112.661 71.9704Z" fill="#FFE592"/>
<path d="M115.544 81.9327C115.406 82.5037 115.268 83.0156 115.131 83.3503C115.78 83.7637 116.685 84 117.59 84C119.616 84 121.131 82.7006 121.131 80.9483C121.131 79.6686 120.502 78.9991 118.829 78.5463C117.767 78.251 117.472 78.1329 117.137 77.8966C116.763 77.6406 116.527 77.1681 116.527 76.6562C116.527 75.7112 117.255 75.0418 118.278 75.0418C119.301 75.0418 119.99 75.534 120.206 76.4003H120.403C120.561 75.7899 120.561 75.7506 120.915 74.8843C120.01 74.5299 119.419 74.4118 118.593 74.4118C116.527 74.4118 115.229 75.4749 115.229 77.1681C115.229 77.9163 115.544 78.6448 116.055 79.0385C116.449 79.3535 116.842 79.5307 117.983 79.8654C119.36 80.2592 119.833 80.712 119.833 81.598C119.833 82.5628 119.026 83.3109 117.964 83.3109C117 83.3109 116.311 82.8778 115.701 81.9327H115.544Z" fill="#FFE592"/>
</svg>
